<?xml version="1.0"?>
<svg xmlns="http://www.w3.org/2000/svg" id="Capa_1" enable-background="new 0 0 512 512" height="512px" viewBox="0 0 512 512" width="512px" class=""><g><g><path d="m241 121h-121v90h121zm-30 60h-61v-30h61z" data-original="#000000" class="active-path" data-old_color="#000000" fill="#FFFFFF"/><path d="m392 121h-121v90h121zm-30 60h-61v-30h61z" data-original="#000000" class="active-path" data-old_color="#000000" fill="#FFFFFF"/><path d="m60 140.464v40.536h-30v90h30v241h90v-241h212v241h90v-241h30v-90h-30v-40.534c36.286-17.282 60-54.005 60-94.466v-46h-90v46c0 8.271-6.729 15-15 15h-302c-8.271 0-15-6.729-15-15v-46h-90v46c0 40.46 23.714 77.182 60 94.464zm-30-110.464h30v16c0 24.813 20.187 45 45 45h302c24.813 0 45-20.187 45-45v-16h30v16c0 60.138-58.301 72.692-60 73.895v91.105h30v30h-30v241h-30v-241h-272v241h-30v-241h-30v-30h30v-91.106c-.384-.272-60-15.16-60-73.894z" data-original="#000000" class="active-path" data-old_color="#000000" fill="#FFFFFF"/></g></g> </svg>
