<?xml version="1.0"?>
<svg xmlns="http://www.w3.org/2000/svg" xmlns:xlink="http://www.w3.org/1999/xlink" version="1.1" id="Capa_1" x="0px" y="0px" viewBox="0 0 512.001 512.001" style="enable-background:new 0 0 512.001 512.001;" xml:space="preserve" width="512px" height="512px" class=""><g><g>
	<g>
		<g>
			<path d="M288.243,167.682c0.62-0.085,1.127-0.326,1.547-0.661c0.216-0.026,0.429-0.118,0.608-0.31     c0.257-0.274,0.515-0.509,0.772-0.76c-0.19,1.972,0.069,3.896,1.422,5.599c1.417,1.784,4.451,4.017,6.809,3.59     c0.416-0.075,0.637-0.655,0.405-0.996c-0.995-1.462-3.038-1.899-4.422-2.967c-2.346-1.81-2.497-4.307-2.13-6.953     c0.725,3.146,3.672,5.549,7.164,5.607c2.162,0.036,5.834-1.436,7.319-3.647c-0.292,2.363-1.317,4.537-3.313,6.097     c-0.506,0.395,0.043,1.328,0.636,1.093c2.015-0.801,3.206-1.86,4.002-3.94c0.492-1.285,0.656-2.674,0.372-3.981     c1.587,0.306,3.135,0.028,4.428-1.55c0.468-0.571,0.201-1.538-0.634-1.529c-5.733,0.061-9.472-4.861-15.455-3.979     c-3.719,0.548-7.415,2.765-8.859,6.283c-0.556,0.296-1.161,0.314-1.764-0.277c-1.339-1.312,0.083-3.62,0.987-4.748     c1.583-1.974,3.729-3.237,5.922-4.405c0.489-0.261,0.262-1.048-0.281-1.038c-4.607,0.088-11.098,4.752-9.963,9.989     C284.238,166.141,286.144,167.968,288.243,167.682z M298.813,161.994c-0.326,1.122,0.004,2.547,0.963,3.173     c0.547,0.357,1.261,0.185,1.716-0.221c0.319-0.285,0.503-0.699,0.644-1.096c0.087-0.246,0.099-0.507,0.135-0.764     c0.006-0.033,0.017-0.09,0.026-0.135c0.034-0.173,0.054-0.338,0.063-0.5c0.891,0.278,1.813,0.677,2.773,1.207     c0.047,0.026,0.095,0.052,0.142,0.078c0.001,0.007,0,0.014,0.001,0.021c0.1,0.667-1.574,1.838-2.069,2.139     c-1.101,0.669-2.465,0.979-3.744,0.745c-1.924-0.352-3.485-1.856-4.5-3.564C296.2,162.433,297.477,162.071,298.813,161.994z" data-original="#000000" class="" data-old_color="#000000" fill="#7CFC00"/>
			<path d="M298.199,154.795c3.448-0.211,6.787,0.77,9.901,2.17c2.116,0.951,3.897,1.811,6.256,1.802     c0.455-0.002,0.715-0.711,0.249-0.917c-2.764-1.224-5.444-2.853-8.374-3.671c-2.755-0.769-5.348-0.536-8.13-0.113     C297.688,154.128,297.783,154.82,298.199,154.795z" data-original="#000000" class="" data-old_color="#000000" fill="#7CFC00"/>
			<path d="M374.154,159.249c-1.467-0.751-3.176,0.043-3.596,1.484c-0.136,0.273-0.215,0.577-0.212,0.884     c0.024,1.974,2.547,2.944,4.13,2.043C376.204,162.676,375.788,160.085,374.154,159.249z" data-original="#000000" class="" data-old_color="#000000" fill="#7CFC00"/>
			<path d="M369.2,157.976c1.388,0.083,2.786-0.229,4.16,0.139c0.991,0.266,2.07,0.889,2.934,1.435     c0.274,0.174,0.709-0.049,0.68-0.39c-0.31-3.63-5.35-3.696-7.995-2.817C368.08,156.641,368.254,157.919,369.2,157.976z" data-original="#000000" class="" data-old_color="#000000" fill="#7CFC00"/>
			<path d="M377.985,22.269c0.626,0.012,1.164-0.148,1.631-0.415c0.217,0.008,0.442-0.051,0.648-0.212     c0.296-0.231,0.587-0.423,0.88-0.632c-0.491,1.919-0.531,3.86,0.543,5.751c1.126,1.981,3.779,4.654,6.176,4.596     c0.422-0.01,0.73-0.549,0.553-0.922c-0.758-1.598-2.71-2.344-3.913-3.613c-2.039-2.149-1.804-4.64-1.034-7.198     c0.232,3.22,2.774,6.048,6.216,6.643c2.13,0.369,5.986-0.521,7.793-2.476c-0.652,2.29-1.999,4.28-4.212,5.515     c-0.561,0.313-0.161,1.319,0.461,1.178c2.114-0.481,3.454-1.344,4.561-3.277c0.684-1.194,1.06-2.542,0.98-3.877     c1.521,0.547,3.094,0.51,4.614-0.849c0.55-0.492,0.435-1.489-0.39-1.609c-5.674-0.823-8.611-6.261-14.658-6.311     c-3.759-0.031-7.753,1.591-9.721,4.844c-0.595,0.206-1.196,0.132-1.701-0.545c-1.121-1.503,0.64-3.564,1.708-4.539     c1.868-1.707,4.183-2.624,6.529-3.441c0.524-0.182,0.421-0.995-0.117-1.069c-4.565-0.623-11.698,2.987-11.382,8.336     C374.266,20.129,375.867,22.229,377.985,22.269z M389.305,18.276c-0.494,1.058-0.388,2.517,0.463,3.283     c0.486,0.437,1.217,0.377,1.73,0.045c0.36-0.232,0.605-0.613,0.806-0.983c0.124-0.23,0.176-0.486,0.252-0.734     c0.011-0.031,0.03-0.087,0.046-0.13c0.06-0.166,0.105-0.326,0.14-0.485c0.837,0.412,1.688,0.948,2.554,1.62     c0.042,0.033,0.085,0.066,0.128,0.099c0,0.007-0.002,0.013-0.002,0.02c-0.003,0.675-1.839,1.574-2.374,1.795     c-1.191,0.491-2.586,0.588-3.814,0.16c-1.848-0.645-3.159-2.37-3.898-4.214C386.655,18.307,387.973,18.147,389.305,18.276z" data-original="#000000" class="" data-old_color="#000000" fill="#7CFC00"/>
			<path d="M389.807,11.068c3.44,0.322,6.588,1.806,9.449,3.668c1.944,1.266,3.571,2.389,5.903,2.743     c0.45,0.068,0.816-0.592,0.387-0.868c-2.543-1.635-4.941-3.657-7.71-4.916c-2.603-1.184-5.202-1.353-8.015-1.363     C389.404,10.331,389.392,11.029,389.807,11.068z" data-original="#000000" class="" data-old_color="#000000" fill="#7CFC00"/>
			<path d="M464.171,27.162c-1.335-0.968-3.146-0.447-3.781,0.913c-0.177,0.248-0.302,0.537-0.346,0.841     c-0.28,1.954,2.064,3.301,3.766,2.654C465.668,30.864,465.656,28.24,464.171,27.162z" data-original="#000000" class="" data-old_color="#000000" fill="#7CFC00"/>
			<path d="M459.471,25.141c1.359,0.295,2.789,0.202,4.089,0.778c0.939,0.415,1.909,1.197,2.678,1.869     c0.245,0.214,0.709,0.061,0.732-0.281c0.252-3.634-4.717-4.476-7.466-4.014C458.571,23.651,458.546,24.94,459.471,25.141z" data-original="#000000" class="" data-old_color="#000000" fill="#7CFC00"/>
			<path d="M412.398,104.515c0.625,0.012,1.163-0.148,1.63-0.415c0.218,0.008,0.442-0.051,0.649-0.212     c0.295-0.231,0.587-0.423,0.88-0.632c-0.491,1.919-0.532,3.86,0.542,5.751c1.126,1.981,3.78,4.654,6.176,4.596     c0.422-0.01,0.73-0.549,0.553-0.922c-0.757-1.598-2.708-2.344-3.913-3.612c-2.039-2.149-1.804-4.64-1.034-7.198     c0.232,3.22,2.774,6.048,6.216,6.643c2.13,0.369,5.986-0.521,7.793-2.476c-0.652,2.289-1.999,4.28-4.212,5.515     c-0.561,0.313-0.162,1.319,0.46,1.178c2.114-0.481,3.455-1.344,4.561-3.277c0.683-1.194,1.059-2.542,0.98-3.877     c1.521,0.547,3.093,0.51,4.614-0.849c0.55-0.492,0.435-1.489-0.391-1.609c-5.673-0.823-8.61-6.261-14.658-6.31     c-3.759-0.031-7.753,1.59-9.721,4.844c-0.595,0.207-1.196,0.132-1.701-0.545c-1.122-1.503,0.64-3.564,1.707-4.539     c1.868-1.707,4.183-2.624,6.53-3.441c0.523-0.182,0.42-0.995-0.118-1.069c-4.565-0.623-11.697,2.987-11.382,8.336     C408.677,102.376,410.279,104.475,412.398,104.515z M423.717,100.522c-0.495,1.058-0.389,2.517,0.462,3.283     c0.485,0.437,1.217,0.377,1.73,0.045c0.359-0.232,0.604-0.613,0.805-0.983c0.125-0.23,0.176-0.486,0.252-0.734     c0.011-0.031,0.031-0.086,0.046-0.13c0.06-0.166,0.105-0.326,0.139-0.485c0.838,0.412,1.688,0.948,2.554,1.62     c0.043,0.033,0.086,0.066,0.129,0.099c0,0.007-0.002,0.013-0.002,0.02c-0.003,0.675-1.839,1.574-2.375,1.795     c-1.191,0.491-2.586,0.588-3.814,0.16c-1.847-0.645-3.158-2.37-3.898-4.214C421.067,100.554,422.385,100.393,423.717,100.522z" data-original="#000000" class="" data-old_color="#000000" fill="#7CFC00"/>
			<path d="M424.219,93.315c3.44,0.322,6.587,1.806,9.448,3.669c1.944,1.266,3.572,2.389,5.904,2.743     c0.449,0.068,0.815-0.592,0.386-0.868c-2.543-1.635-4.94-3.657-7.71-4.917c-2.603-1.184-5.202-1.353-8.015-1.363     C423.816,92.577,423.804,93.276,424.219,93.315z" data-original="#000000" class="" data-old_color="#000000" fill="#7CFC00"/>
			<path d="M498.582,109.409c-1.333-0.968-3.145-0.447-3.781,0.913c-0.176,0.248-0.302,0.537-0.346,0.841     c-0.28,1.954,2.064,3.301,3.766,2.654C500.08,113.11,500.068,110.486,498.582,109.409z" data-original="#000000" class="" data-old_color="#000000" fill="#7CFC00"/>
			<path d="M493.883,107.388c1.358,0.296,2.788,0.202,4.089,0.778c0.938,0.415,1.909,1.197,2.678,1.869     c0.244,0.214,0.709,0.061,0.732-0.281c0.253-3.634-4.717-4.475-7.466-4.014C492.982,105.897,492.958,107.187,493.883,107.388z" data-original="#000000" class="" data-old_color="#000000" fill="#7CFC00"/>
			<path d="M507.711,178.681c-4.147-3.971-9.958-4.281-15.385-4.248c-4.973,0.031-9.904-0.233-14.779-0.969     c-9.819-4.03-18.102-11.253-27.973-15.76c-8.815-4.025-18.409-6.007-28.045-7.201c4.347-0.581,8.63-2.029,12.919-2.749     c6.872-1.153,13.878-0.901,20.611,0.927c6.729,1.826,12.801,5.525,19.6,7.13c4.442,1.049,9.476,1.104,13.713-0.788     c2.5-1.116,6.465-3.716,5.422-7.029c-0.074-0.235-0.185-0.451-0.301-0.663c1.396-1.353,1.792-3.83,2.222-5.647     c0.611-2.588,1.208-5.707,0.488-8.322c-0.246-0.894-1.469-0.91-1.994-0.311c-1.796,2.049-3.496,4.169-5.213,6.283     c-0.438,0.539-0.99,1.036-1.555,1.531c0.098-2.724-0.44-5.659-0.503-8.089c-0.025-1-1.488-1.373-2.059-0.602     c-2.14,2.885-3.968,6.293-6.922,8.41c-0.355-3.533-1.105-6.952-2.037-10.404c-0.083-0.31-0.319-0.529-0.606-0.646     c1.68-2.014,3.066-4.155,4.165-6.497c0.329,2.904,0.055,5.905,0.942,8.77c0.306,0.986,1.589,0.996,2.197,0.342     c2.361-2.542,4.336-5.246,6.005-8.2c0.315,3.107-0.321,6.319,0.111,9.463c0.125,0.907,1.293,1.572,2.067,0.905     c4.129-3.555,7.54-7.573,10.409-12.165c1.451-0.114,2.873-0.323,4.241-0.67c9.056-2.303,5.367-15.142-0.076-19.296     c-4.563-3.484-10.373-3.145-15.762-2.507c-4.939,0.585-9.868,0.872-14.795,0.684c-10.208-2.911-19.243-9.166-29.555-12.545     c-12.471-4.087-25.945-4.295-38.949-3.918c-3.985,0.116-8.729,0.193-11.881,3.003c-0.63,0.562-1.116,1.191-1.517,1.878     c-7.117-1.138-14.876-0.445-21.963-0.685c-7.137-0.242-14.255-0.653-21.38-1.07c3.032-3.111,6.496-5.797,10.353-8.004     c4.771-2.731,9.849-4.806,14.903-6.939c2.703-1.141,5.615-2.132,8.205-3.588c5.764,0.152,11.378-2.042,17.002-2.987     c6.871-1.153,13.878-0.901,20.61,0.927c6.73,1.826,12.802,5.525,19.6,7.13c4.443,1.049,9.476,1.104,13.714-0.788     c2.5-1.116,6.464-3.716,5.421-7.029c-0.074-0.235-0.185-0.451-0.301-0.663c1.395-1.353,1.793-3.83,2.222-5.647     c0.611-2.588,1.208-5.707,0.488-8.322c-0.246-0.894-1.47-0.91-1.995-0.311c-1.795,2.049-3.496,4.169-5.212,6.283     c-0.438,0.539-0.99,1.036-1.556,1.531c0.098-2.724-0.441-5.659-0.503-8.089c-0.025-1-1.487-1.373-2.059-0.602     c-2.139,2.885-3.967,6.293-6.921,8.41c-0.356-3.533-1.106-6.952-2.037-10.404c-0.084-0.31-0.32-0.529-0.607-0.646     c1.681-2.014,3.067-4.155,4.166-6.497c0.329,2.904,0.054,5.905,0.942,8.77c0.307,0.986,1.59,0.996,2.197,0.342     c2.361-2.542,4.336-5.246,6.005-8.2c0.315,3.107-0.321,6.319,0.111,9.462c0.125,0.907,1.293,1.572,2.067,0.905     c4.129-3.555,7.54-7.573,10.409-12.165c1.451-0.114,2.872-0.323,4.24-0.671c9.057-2.303,5.366-15.141-0.076-19.296     c-4.563-3.484-10.373-3.145-15.762-2.507c-4.939,0.584-9.868,0.872-14.794,0.684c-10.205-2.911-19.24-9.166-29.551-12.545     c-12.471-4.087-25.945-4.295-38.949-3.918c-3.985,0.116-8.73,0.192-11.882,3.003c-0.63,0.562-1.116,1.191-1.517,1.878     c-7.117-1.138-14.877-0.445-21.963-0.685c-8.153-0.276-16.281-0.773-24.423-1.247c-2.18-0.127-3.601,2.453-1.785,4.006     c4.955,4.237,10.986,6.319,16.913,8.882c2.679,1.159,5.347,2.344,8.018,3.519c-2.551-0.108-5.076-0.015-7.569,0.255     c-0.123-0.176-0.291-0.326-0.527-0.403c-16.206-5.323-35.004-3.687-51.437-0.26c-1.573,0.328-2.046,2.95-0.475,3.632     c5.623,2.439,10.809,5.524,15.591,9.247c-11.5-0.011-22.96,1.76-33.869,5.509c-1.934,0.664-2.132,3.547,0,4.128     c5.903,1.61,11.673,3.941,17.041,6.935c-10.833,2.675-20.953,8.247-29.458,15.362c-1.5,1.255-0.188,3.541,1.498,3.617     c4.966,0.222,9.862,0.929,14.707,1.949c-8.3,4.492-15.982,9.895-23.086,16.185c-1.424,1.26-0.17,3.283,1.421,3.431     c4.559,0.423,9.093,0.983,13.569,1.893c-6.929,5.757-13.521,11.877-19.709,18.439c-1.206,1.279-0.376,3.558,1.466,3.537     c5.437-0.062,10.718,0.511,15.962,1.723c-4.849,4.988-9.025,11.124-13.35,16.358c-1.083,1.311-0.413,3.339,1.407,3.396     c5.245,0.166,10.461,0.549,15.667,1.134c-3.206,3.35-6.701,6.862-8.827,10.674c-0.368,0.659-0.394,1.479,0,2.136     c3.423,5.707,14.654,1.018,19.387,4.828c0.561,0.452,1.289,0.514,1.938,0.338c-0.011,0.028-0.028,0.054-0.039,0.083     c-7.207-0.029-14.768,1.851-21.807,2.705c-8.098,0.982-16.206,1.743-24.324,2.528c-2.173,0.21-3.18,2.978-1.146,4.233     c5.548,3.424,11.828,4.552,18.079,6.173c5.238,1.358,10.464,2.754,15.689,4.157c-7.399,2.785-14.642,6.126-21.271,10.372     c-1.701,1.089-1.179,4.221,1.1,4.062c8.089-0.565,16.074-0.26,24.082,0.73c-1.393,1.048-2.695,2.276-4.003,3.26     c-2.961,2.227-6.033,4.284-9.184,6.232c-1.565,0.968-1.194,3.232,0.496,3.794c4.452,1.481,9.872,0.902,14.977,0.216     c-1.985,1.407-3.918,2.886-5.863,4.391c-2.219,1.717-6.396,3.757-7.318,6.514c-1.302,3.897,4.633,5.509,8.975,6.471     c-2.07,2.442-4.118,5.635-4.497,8.554c-10.822-9.951-25.38-17.297-34.819-28.202c-19.042-21.998-11.555-54.493-2.265-78.939     c5.279-13.891,11.534-27.445,15.623-41.762c1.586-5.553,3.685-11.947,1.664-17.644c-1.882-5.305-7.309-8.676-11.843-11.494     c-12.246-7.608-26.345-12.436-39.856-17.288c-14.473-5.198-29.171-9.787-44.044-13.698c-33.05-8.694-66.927-14.242-101.03-16.466     c-2.254-0.147-3.357,3.469-1.196,4.414c8.872,3.881,19.096,8.586,23.398,17.595c-14.346-0.96-28.737-1.547-43.224-2.111     c-1.551-0.06-17.913,1.667-11.472,5.436c14.976,8.763,32.087,19.201,38.392,36.326c7.282,19.777-2.516,40.848-13.055,57.427     c-0.915,1.438,0.254,3.841,2.088,3.639c12.281-1.352,24.654,4.178,30.649,15.317c6.014,11.176,3.672,25.44-4.777,34.67     c-1.624,1.774,0.013,4.198,2.226,3.824c26.167-4.421,47.914,18.882,42.148,44.662c-0.422,1.884,1.703,4.002,3.539,2.721     c14.369-10.027,33.403-5.033,40.849,10.863c0.617,1.317,2.761,1.558,3.693,0.476c11.606-13.479,43.294-17.884,51.539,1.671     c2.157,5.116,2.685,10.748,3.763,16.194c-12.9-1.904-26.074-2.218-39.12-1.007c-6.914-5.885-17.254-10.642-26.23-11.606     c-2.389-0.257-4.473,0.185-5.376,2.622c-0.732,1.976-0.117,4.338,0.038,6.379c0.15,1.95,0.299,3.9,0.448,5.85     c-7.282-4.156-15.952-6.779-24.258-6.091c-2.626,0.217-4.785,1.06-5.479,3.842c-0.578,2.317,0.069,5.368,0.183,7.708     c0.108,2.219,0.206,4.438,0.305,6.658c-3.938-1.052-7.924-1.875-11.981-2.374c-4.351-0.535-10.182-1.726-14.411-0.137     c-2.463,0.926-3.79,2.823-3.535,5.492c0.388,4.063,2.107,8.471,3.662,12.631c-7.292-2.268-14.899-1.757-22.137,1.504     c-1.011,0.455-1.462,2.149-0.796,3.036c3.108,4.147,5.569,8.51,7.456,13.258c-7.48-0.298-14.635,1.258-21.525,4.495     c-1.055,0.496-1.428,2.126-0.805,3.068c2.657,4.014,5.299,8.036,7.926,12.07c-20.593,27.408-32.686,62.673-18.457,95.576     c8.758,20.253,27.453,32.927,46.902,41.799c21.127,9.638,43.822,15.04,66.71,18.485c24.915,3.75,50.075,5.378,75.126,7.93     c-1.633,6.349-3.8,12.481-6.578,18.451c-0.777,1.67,0.558,4.362,2.709,3.524c16.22-6.314,32.436-12.637,48.647-18.974     c1.469-0.574,2.563-2.707,1.042-3.947c-10.53-8.579-21.067-17.151-31.6-25.726c-1.292-1.052-3.146-0.713-3.686,0.973     c-1.399,4.369-2.803,8.737-4.205,13.105c-39.874-18.218-85.471-12.12-126.503-26.38c-9.693-3.369-19.064-7.891-27.288-14.076     c-9.236-6.946-19.433-17.069-20.424-29.18c-1.854-22.667,19.067-40.928,38.572-47.675c25.578-8.848,51.999-1.475,75.753,9.208     c-0.872,1.236-1.8,2.432-2.797,3.57c-5.007,5.712-10.331,9.56-10.993,17.694c-0.77,9.463,1.286,19.616,2.005,29.071     c0.374,4.916,0.718,9.835,1.035,14.755c0.188,2.913-0.51,7.778,1.813,10.145c2.024,2.061,6.234,1.907,8.867,2.22     c5.319,0.632,10.67,0.966,16.025,1c2.79,0.018,8.163,0.433,12.351-0.659c0.084,0.099,0.176,0.189,0.28,0.256     c2.059,1.321,4.633,0.844,6.998,1.097c3.102,0.331,6.022,1.165,9.024,1.952c1.559,0.408,2.683-0.975,2.429-2.429     c-0.211-1.211-0.597-2.396-1.12-3.509c2.021-0.683,4.036-1.306,6.115-1.777c3.089,1.179,7.026,1.72,10.058,0.748     c0.125,0.219,0.309,0.416,0.598,0.554c2.212,1.06,4.683,0.887,7.102,1.124c2.855,0.28,5.672,0.786,8.519,1.106     c0.966,0.109,2.064-0.985,1.95-1.95c-0.17-1.435-0.376-2.939-0.749-4.37c1.879-0.083,4.026-1.153,5.538-1.709     c0.935-0.344,1.815-1.385,1.397-2.461c-1.351-3.483-2.713-7.302-5.97-9.465c-2.714-1.802-5.011-1.448-7.52-0.574     c-1.292-2.19-3.456-3.951-5.702-4.995c-2.982-1.386-6.365-1.754-9.303-3.235c-4.056-2.045-6.695-5.911-8.006-10.171     c-2.571-8.357,0.791-16.587,2.436-24.762c2.07,0.35,4.121,0.659,6.103,0.955c8.589,1.284,17.258,1.964,25.943,1.986     c8.391,0.021,16.755-0.631,25.057-1.839c4.364-0.635,8.702-1.432,13.005-2.399c2.921-0.656,6.127-1.159,8.994-2.266     c-0.677,5.474-1.554,10.931-0.959,16.486c0.893,8.344,4.113,16.206,5.322,24.487c1.045,7.158-2.396,15.384,0.211,22.186     c2.42,6.311,9.361,7.132,15.247,7.741c8.338,0.862,18.336,1.707,26.579-0.272c1.316-0.316,2.41-0.871,3.298-1.582     c1.639,0.101,3.319-0.11,4.956,0.122c2.738,0.388,5.25,1.472,7.865,2.302c1.631,0.518,2.889-1.101,2.591-2.591     c-0.148-0.742-0.323-1.493-0.504-2.242c10.64,0.496,22.638,1.811,32.863-1.384c0.129-0.04,0.254-0.094,0.374-0.158     c0.961,0.07,1.927,0.09,2.827,0.174c2.975,0.279,5.92,0.686,8.887,1.01c1.537,0.168,2.457-1.813,1.728-3.009     c-0.4-0.655-0.833-1.303-1.286-1.941c1.332-0.539,2.613-1.229,3.893-1.875c1.063-0.536,1.297-1.972,0.773-2.945     c-2.01-3.728-4.446-7.878-8.622-9.461c-2.505-0.95-7.081-1.14-10.029,0.275c-1.306-2.038-3.455-3.565-6.46-4.368     c-4.979-1.331-9.133-1.783-12.264-6.496c-2.928-4.408-3.403-9.755-2.958-14.899c1.44-16.642,10.375-36.381,2.705-52.744     c17.617-12.448,32.711-29.163,40.325-49.17c5.263-13.832,5.362-27.297,3.304-41.765c-2.07-14.546-2.776-31.269,12-38.703     c1.461-0.182,2.918-0.343,4.367-0.422c6.958-0.381,13.892,0.651,20.379,3.217c6.484,2.565,12.106,6.917,18.684,9.269     c4.298,1.537,9.293,2.153,13.716,0.745c2.609-0.83,6.839-2.972,6.171-6.381c-0.047-0.242-0.134-0.468-0.225-0.693     c1.538-1.189,2.208-3.606,2.837-5.365c0.896-2.504,1.836-5.537,1.413-8.216c-0.145-0.916-1.359-1.068-1.948-0.531     c-2.012,1.836-3.938,3.753-5.88,5.662c-0.495,0.487-1.1,0.919-1.715,1.349c0.401-2.696,0.192-5.673,0.401-8.095     c0.086-0.997-1.326-1.53-1.979-0.828c-2.447,2.629-4.645,5.812-7.816,7.587c0.04-3.55-0.324-7.032-0.865-10.566     c-0.049-0.318-0.259-0.561-0.531-0.71c1.895-1.814,3.511-3.788,4.864-5.992c0.003,2.923-0.604,5.875-0.04,8.82     c0.194,1.014,1.468,1.167,2.145,0.585c2.629-2.263,4.893-4.73,6.881-7.479c-0.034,3.123-1.023,6.244-0.943,9.416     c0.023,0.916,1.109,1.706,1.954,1.13c4.499-3.073,8.336-6.686,11.699-10.93c1.455,0.048,2.89-0.001,4.289-0.194     C514.894,196.586,512.657,183.417,507.711,178.681z M255.69,199.515c-1.678,0.144-3.384,0.37-5.079,0.439     c1.602-1.141,3.178-2.318,4.726-3.538c0.443-0.349,0.905-0.701,1.369-1.057c-0.183,1.209-0.232,2.78,0.016,4.067     C256.378,199.455,256.034,199.485,255.69,199.515z M398.993,427.435c3.063,0.973,4.767,3.675,6.101,6.446     c-0.95,0.467-1.876,0.962-2.751,1.546c-1.401-1.297-3.009-2.339-4.903-2.876c-1.282-0.364-3.285-0.574-4.963-0.214     c0.25-1.655,0.211-3.206-0.097-4.622C394.528,427.51,396.788,426.734,398.993,427.435z M392.032,435.644     c1.827-0.272,3.405-0.341,5.126,0.49c1.252,0.604,2.274,1.48,3.156,2.492c-1.527-0.205-3.065-0.314-4.527-0.305     c-0.75,0.005-1.55,0.014-2.352,0.067c-0.432-1.009-0.926-1.912-1.469-2.733C391.99,435.651,392.007,435.648,392.032,435.644z      M489.849,142.227c1.613-1.62,3.044-3.456,4.419-5.313c-0.161,1.916-0.829,4.01-1.358,5.456     c-0.378,1.035-1.008,2.015-1.354,3.037c-1.039-0.644-2.313-1.127-3.656-1.504C488.619,143.432,489.278,142.801,489.849,142.227z      M484.762,136.555c0.055,2.197,0.012,4.381-0.34,6.553c-1.407-0.271-2.7-0.491-3.637-0.736c-0.245-0.064-0.476-0.141-0.714-0.212     C481.978,140.613,483.389,138.638,484.762,136.555z M475.52,140.3c-1.59-0.842-3.059-1.819-4.486-2.862     c1.235-1.297,2.322-2.705,3.368-4.167C475.023,135.572,475.366,137.921,475.52,140.3z M467.66,127.738     c-1.038,1.663-2.28,3.034-3.577,4.405c-0.712-0.512-1.44-1.015-2.2-1.5c-3.772-2.408-7.851-3.253-12.066-3.769     c-0.385-1.857-0.998-7.191-3.736-6.023c-1.087,0.464-1.782,2.17-2.407,3.094c-0.47,0.694-0.999,1.376-1.466,2.09     c-6.878-0.878-13.655-2.495-20.245-4.658c3.729-1.227,7.535-2.091,11.436-2.531c0.056,0.058,0.118,0.113,0.197,0.157     c0.546,0.303,0.96,2.116,1.223,2.702c0.416,0.925,0.838,1.846,1.275,2.761c0.316,0.662,1.191,1.052,1.832,0.532     c1.959-1.588,2.707-4.075,4.561-5.76c0.165-0.15,0.276-0.335,0.344-0.534c3.017,0.282,6.003,0.827,8.994,1.307     c0.439,2.531,1.241,6.323,3.579,6.686c2.272,0.352,3.981-3.119,4.948-5.507c1.247,2.655,1.442,7.599,4.389,7.775     c2.5,0.15,4.509-4.313,5.722-7.455c0.86,2.881,0.107,6.444,1.263,9.294c0.189,0.467,0.57,0.722,0.986,0.775     c-0.853,1.227-1.68,2.466-2.464,3.732c-0.23-2.324-0.381-4.653-0.56-6.981C469.618,127.421,468.192,126.885,467.66,127.738z      M468.761,135.713c-0.867-0.675-1.738-1.357-2.625-2.039c0.659-0.7,1.268-1.458,1.831-2.245     C468.247,132.854,468.52,134.28,468.761,135.713z M447.59,126.624c-0.879-0.091-1.763-0.178-2.651-0.27     c0.485-0.774,0.939-1.564,1.41-2.262c0.086-0.129,0.173-0.257,0.26-0.386c0.027,0.047,0.046,0.09,0.088,0.143     c0.074,0.255,0.155,0.508,0.243,0.76C447.159,125.28,447.374,125.953,447.59,126.624z M435.611,118.645     c1.093-0.076,2.191-0.128,3.301-0.133c0.231-0.001,0.462,0.009,0.692,0.013c-0.81,1.045-1.349,2.314-2.122,3.409     c-0.416-0.798-0.839-1.591-1.295-2.363C436.003,119.259,435.818,118.938,435.611,118.645z M453.443,120.257     c1.54,0.228,3.084,0.42,4.637,0.53c-0.372,0.667-0.776,1.316-1.217,1.946c-0.494,1.55-1.001,1.761-1.523,0.635     C454.576,122.942,453.949,121.542,453.443,120.257z M462.729,120.884c1.737-0.017,3.461-0.059,5.178-0.109     c-0.377,0.815-0.773,1.621-1.207,2.413c-2.586,4.731-2.014,2.674-3.131-0.163C463.252,122.216,463.012,121.519,462.729,120.884z      M473.506,127.709c-0.381-2.372-0.102-4.819-0.712-7.063c1.646-0.033,3.293-0.045,4.948-0.016     C476.649,123.203,475.262,125.534,473.506,127.709z M482.296,128.548c-0.375-2.577-0.2-5.206-0.686-7.762     c0.847,0.055,1.695,0.116,2.55,0.205c0.95,0.099,1.925,0.214,2.915,0.332C485.707,123.903,484.128,126.295,482.296,128.548z      M491.127,130.477c-0.058-2.939,0.307-5.84-0.298-8.711c2.37,0.262,4.784,0.47,7.16,0.491     C495.993,125.25,493.715,127.972,491.127,130.477z M393.109,102.863c2.69-3.421,1.471-10.872,4.739-12.957     c3.943-2.515,11.3-1.317,15.711-1.337c12.53-0.057,24.432,1.183,35.929,5.894c0.938,0.996,1.453,2.321,1.571,3.813     c0.155,1.972-0.766,3.966-0.319,5.889c0.134,0.577,0.817,0.85,1.242,0.363c1.923-2.203,1.916-5.969,0.498-8.759     c0.167,0.078,0.335,0.148,0.501,0.227c2.361,1.126,4.785,2.37,7.247,3.547c0.482,1.118,0.685,2.358,0.549,3.654     c-0.204,1.935-1.383,3.452-1.778,5.32c-0.103,0.492,0.426,0.826,0.853,0.683c2.63-0.883,3.463-4.148,3.31-6.681     c-0.037-0.611-0.156-1.197-0.316-1.767c1.563,0.693,3.138,1.324,4.72,1.859c0.374,0.781,0.647,1.614,0.786,2.508     c0.234,1.499-0.139,3.062,0.435,4.49c0.137,0.342,0.616,0.522,0.92,0.267c1.862-1.56,1.624-4.1,0.621-6.455     c1.744,0.424,3.503,0.62,5.268,0.683c0.58,0.514,1.085,1.1,1.365,1.816c0.551,1.41-0.443,2.79-0.735,4.161     c-0.115,0.543,0.481,0.948,0.962,0.771c2.006-0.742,2.813-3.06,2.241-5.039c-0.186-0.643-0.501-1.207-0.886-1.723     c7.085-0.269,14.208-2.04,20.879-0.09c3.497,1.022,6.178,3.567,7.132,7.154c1.189,4.471-0.444,6.406-4.988,7.273     c-6.125,1.169-13.591-0.78-19.721-1.437c-5.375-0.576-10.58-0.687-15.961-0.179c-6.688,0.631-12.979,0.241-19.631-0.507     c-10.498-1.181-21.075-0.198-31.092,3.214c-1.693,0.577-1.683,3.118-0.094,3.807c10.722,4.651,21.517,6.734,33.099,7.876     c6.125,0.604,10.762,2.493,15.555,6.376c3.924,3.179,7.641,6.255,12.498,7.877c1.842,0.615,3.741,1.03,5.63,1.469     c1.139,0.265,2.29,0.494,3.423,0.786c1.5,0.385,4.606,0.244,4.076,1.899c-0.58,1.811-5.251,2.664-6.708,2.847     c-3.082,0.388-6.009-0.116-8.954-0.965c-5.408-1.559-10.362-4.35-15.724-6.057c-4.984-1.587-10.173-2.407-15.399-2.519     c-4.606-0.099-9.122,0.414-13.586,1.54c-6.262,1.579-12.006,3.201-18.292,0.702c-4.703-1.87-8.722-5.114-13.121-7.561     c-4.267-2.373-12.177-3.986-11.934-10.155c0.148-3.756,2.692-6.992,1.899-10.896c-0.597-2.936-1.933-6.075,0.067-8.693     C389.077,105.913,391.574,104.815,393.109,102.863z M405.092,256.311c-1.207-0.639-2.333-1.413-3.421-2.241     c-0.56-3.173-1.303-6.357-2.14-9.54c1.203,0.828,2.475,1.552,3.718,2.139c2.353,1.112,4.766,1.332,7.215,1.895     c0.154,3.103,0.463,6.201,0.789,9.299C409.114,257.765,407.18,257.418,405.092,256.311z M411.415,259.409     c0.391,3.702,0.77,7.405,0.91,11.12c-3.26-0.219-6.901-2.435-9.625-4.612c0.066-3.345-0.214-6.727-0.74-10.128     C404.76,257.964,408.077,259.7,411.415,259.409z M410.406,247.076c-1.702-0.594-3.917-0.452-5.528-1.059     c-2.139-0.805-3.967-2.091-5.836-3.317c-1.201-4.399-2.538-8.786-3.757-13.12c4.333,3.976,9.634,8.417,15.517,7.851     C410.376,240.656,410.302,243.869,410.406,247.076z M344.418,349.147c-0.718-3.134-1.841-6.019-3.272-8.817     c0.208-4.689-0.095-9.389-1.206-14.069c-0.683-2.878-1.701-5.66-3.057-8.266c1.86,2.172,3.804,4.254,5.442,6.645     c2.008,2.93,3.735,6.06,5.146,9.32c1.496,3.457,2.634,7.074,3.397,10.763c0.375,1.813,0.655,3.644,0.84,5.486     c0.082,0.816,0.142,1.634,0.185,2.452c0.021,0.4,0.033,0.8,0.044,1.2c-1.838,1.024-3.694,2.015-5.573,2.958     c-0.294,0.148-0.604,0.28-0.905,0.421C345.989,354.818,344.846,351.016,344.418,349.147z M343.877,357.959     c-2.001,0.859-4.083,1.655-6.061,2.587c1.466-5.935,2.726-11.969,3.196-18.029c0.681,1.695,1.257,3.432,1.715,5.188     C343.525,350.754,344.574,354.78,343.877,357.959z M349.191,334.57c-2.564-6.265-6.516-13.498-11.879-18.072     c1.696-2.001,3.238-4.129,4.61-6.364c3.231,0.857,5.964,4.531,8.036,6.763c2.678,2.885,5.29,5.854,7.521,9.104     c2.235,3.257,4.085,6.79,5.152,10.608c0.979,3.503,0.903,6.624,0.679,10.031c-1.408,1.038-2.836,2.052-4.317,3.005     c-1.859,1.197-3.756,2.338-5.676,3.437c-0.014-0.144-0.026-0.285-0.033-0.422c-0.106-1.972-0.324-3.938-0.64-5.887     C351.967,342.59,350.797,338.492,349.191,334.57z M333.97,313.409c-0.238-0.313-0.473-0.628-0.726-0.932     c-1.715-2.061-3.709-3.772-5.815-5.345c4.1-5.631,6.717-12.305,6.096-18.913c-1.097-11.67-11.547-20.489-20.424-26.828     c-11.524-8.229-25.022-13.068-36.576-21.151c-3.491-2.442-6.836-5.471-9.372-9.015c-0.082-0.171-0.191-0.328-0.328-0.467     c-1.663-2.423-2.946-5.077-3.63-7.95c-1.714-7.197,1.232-13.378,3.081-20.033c0.407,0.216,0.822,0.424,1.262,0.61     c5.645,2.381,11.734,3.787,17.449,6.158c4.383,1.818,8.992,3.425,13.806,3.182c2.892-0.146,5.642-0.942,8.337-1.949     c-0.622,9.816,10.302,19.618,15.773,26.202c10.205,12.278,20.221,26.382,21.826,42.756     C345.92,291.898,341.775,304.13,333.97,313.409z M264.18,234.286c3.301,4.64,7.696,8.242,12.506,11.323     c-1.715,4.877-6.932,7.538-12.191,8.376c-1.045-7.648-4.284-13.769-8.724-19.054C258.619,235.144,261.982,234.6,264.18,234.286z      M255.666,230.014c-1.415-1.581,1.647-5.372,3.671-7.506c0.399,2.72,1.224,5.389,2.503,7.931     C259.293,230.644,256.363,230.793,255.666,230.014z M364.12,183.851c-1.669,3.18-2.952,6.829-5.545,9.376     c-0.895-3.436-2.163-6.699-3.614-9.966c-0.131-0.294-0.397-0.473-0.699-0.545c1.35-2.249,2.39-4.578,3.116-7.061     c0.772,2.819,0.963,5.827,2.281,8.52c0.454,0.928,1.724,0.739,2.223,0c1.941-2.875,3.477-5.851,4.671-9.026     c0.789,3.022,0.656,6.293,1.567,9.333c0.263,0.877,1.52,1.354,2.182,0.576c1.476-1.733,2.807-3.531,4.021-5.394     c2.623,2.25,5.97,4.016,8.715,5.876c1.252,0.848,3.37,2.641,5.214,2.813c-0.526,2.519-0.922,5.076-1.189,7.659     c-2.046-0.348-4.14-0.429-6.179-0.914c-1.615-0.384-3.174-0.941-4.75-1.449c0.07-0.722,0.106-1.434,0.156-2.069     c0.206-2.652,0.315-5.825-0.799-8.298c-0.381-0.845-1.592-0.673-2.018,0c-1.459,2.301-2.813,4.657-4.184,7.01     c-0.35,0.6-0.819,1.176-1.301,1.752c-0.322-2.706-1.307-5.524-1.742-7.915C366.068,183.145,364.566,183.001,364.12,183.851z      M365.35,194.726c-1.432-0.051-2.743-0.069-3.707-0.168c-0.251-0.026-0.492-0.066-0.738-0.099c1.646-1.822,2.736-3.99,3.772-6.26     C365.07,190.361,365.363,192.525,365.35,194.726z M353.935,186.55c0.969,2.178,1.669,4.446,2.188,6.773     c-1.701-0.587-3.303-1.326-4.874-2.137C352.269,189.714,353.127,188.155,353.935,186.55z M350.403,174.322     c1.621-0.286,3.247-0.551,4.886-0.778c-0.683,2.711-1.696,5.228-3.095,7.647C351.452,178.906,351.351,176.445,350.403,174.322z      M359.135,173.103c0.846-0.076,1.694-0.146,2.552-0.19c0.953-0.049,1.935-0.085,2.932-0.12c-0.956,2.759-2.147,5.366-3.611,7.874     C360.241,178.178,360.009,175.553,359.135,173.103z M368.397,172.653c2.382-0.106,4.799-0.272,7.149-0.617     c-1.511,3.264-3.343,6.305-5.514,9.179C369.522,178.32,369.436,175.396,368.397,172.653z M375.364,198.111     c-0.109-0.221-0.253-0.417-0.399-0.609c0.56-0.743,0.851-1.706,1.022-2.712c3.259,1.688,7.482,2.719,10.977,2.491     c-0.158,1.829-0.252,3.669-0.28,5.518c-3.808,1.02-8.015,0.413-11.994-0.224C375.647,201.214,376.127,199.654,375.364,198.111z      M370.577,193.02c1.345-1.849,2.475-3.883,3.549-5.93c0.136,1.918-0.202,4.09-0.502,5.6c-0.214,1.081-0.686,2.146-0.871,3.209     c-1.126-0.476-2.458-0.757-3.844-0.924C369.547,194.401,370.101,193.675,370.577,193.02z M374.053,203.374     c4.156,0.847,8.54,1.833,12.621,0.757c0.012,2.297,0.126,4.574,0.339,6.833c-2.991,2.368-7.305,2.808-10.988,3.486     c-4.832,0.889-9.742,1.412-14.66,1.329c-4.5-0.076-8.995-0.673-13.327-1.912c-4.099-1.172-7.657-3.078-11.322-5.096     c0.236-1.307,0.587-2.622,1.085-3.93c6.708,0.854,13.098,3.417,19.859,3.94c4.551,0.352,9.532-0.368,13.428-2.889     C372.017,205.29,373.14,204.411,374.053,203.374z M362.855,217.049c5.532-0.02,11.049-0.765,16.455-1.908     c2.195-0.464,5.669-0.875,7.889-2.394c0.324,2.81,0.791,5.593,1.339,8.363c-7.917,2.94-15.66,5.33-24.153,6.037     c-7.176,0.597-15.641,0.876-22.445-2.061c-4.314-4.041-6.136-9.548-5.396-15.294C343.69,215.352,354.145,217.081,362.855,217.049     z M340.669,237.231c2.608-0.784,5.575-1.876,8.471-2.26c0.085,0.048,0.169,0.095,0.255,0.144     c4.427,2.522,8.558,5.365,12.292,8.528c-4.029-0.325-8.581,0.613-12.301,1.445c-4.255,0.952-8.109,2.433-11.892,4.373     c-0.318-0.473-0.631-0.949-0.957-1.415c-1.818-2.599-3.77-5.089-5.787-7.525C334.031,239.351,337.332,238.234,340.669,237.231z      M330.252,239.906c-2.278-2.723-4.646-5.372-7.042-7.998c2.4-0.085,4.892-0.725,7.09-1.219c2.686-0.604,5.827-1.208,8.529-2.332     c2.527,2.213,5.543,3.928,8.658,5.68c-1.645,0.384-3.279,0.856-4.882,1.313C338.368,236.556,334.246,238.066,330.252,239.906z      M349.726,246.323c2.602-0.563,5.241-0.952,7.896-1.148c1.841-0.136,3.713-0.041,5.547-0.242     c4.104,3.68,7.672,7.777,10.546,12.299c-5.095-1.074-10.869-0.565-15.87,0.052c-4.643,0.573-9.63,1.473-14.02,3.376     c-1.697-3.68-3.702-7.235-5.938-10.619C341.702,248.452,345.742,247.185,349.726,246.323z M362.068,238.098     c-5.281-3.946-10.986-7.003-16.707-10.425c-0.204-0.122-0.389-0.258-0.586-0.385c1.385,0.398,2.831,0.638,4.236,0.826     c4.776,0.638,9.638,0.733,14.443,0.413c8.538-0.569,17.562-2.402,25.343-6.114c0.564,2.709,1.215,5.404,1.903,8.095     c-2.234,0.943-4.362,2.29-6.609,3.191c-2.62,1.05-5.314,1.913-8.056,2.585C371.449,237.407,366.77,237.903,362.068,238.098z      M337.529,227.118c-2.069,0.661-4.127,1.486-6.198,2.006c-2.68,0.672-6.08,1.713-9.079,1.737     c-0.202-0.221-0.404-0.442-0.606-0.662c-2.626-2.86-4.94-5.561-6.851-8.404c3.17,0.608,6.504,0.343,9.665-0.18     c2.391-0.395,5.963-1.005,8.525-2.37c0.087,0.303,0.174,0.607,0.275,0.907C334.218,223.008,335.707,225.241,337.529,227.118z      M332.619,217.772c-0.678,0.283-1.346,0.612-2.063,0.878c-1.808,0.67-3.672,1.187-5.562,1.565     c-3.599,0.721-7.142,0.601-10.762,0.688c-1.691-2.663-3.042-5.468-3.939-8.675c7.449,1.167,15.069,1.077,22.16-1.578     C332.079,212.991,332.134,215.408,332.619,217.772z M332.746,209.223c-4.044,1.671-8.312,2.576-12.701,2.593     c-3.343,0.013-6.662-0.399-9.998-0.485c-0.127-0.512-0.244-1.034-0.35-1.567c2.331-0.959,4.642-1.972,6.991-2.753     c5.775-1.92,11.817-2.794,17.874-2.472C333.725,206.014,333.138,207.595,332.746,209.223z M344.279,261.642     c4.81-1.21,9.496-2.618,14.503-3.147c5.303-0.56,10.47,0.095,15.73,0.063c2.143,3.603,3.849,7.467,5.046,11.595     c-4.906-1.576-10.411-1.366-15.455-1.046c-5.375,0.341-11.11,0.901-16.357,2.473C346.88,268.188,345.707,264.867,344.279,261.642     z M379.954,271.688c0.372,1.457,0.664,2.954,0.91,4.473c-10.722-0.606-21.417,0.853-31.641,4.232     c-0.215-2.648-0.63-5.268-1.24-7.846C358.696,271.005,369.287,268.764,379.954,271.688z M379.666,258.539     c2.54-0.768,5.116-1.433,7.717-1.944c1.961-0.386,3.94-0.683,5.928-0.891c1.1-0.115,2.219-0.103,3.304-0.259     c0.494,3.232,0.833,6.467,1.01,9.728c-4.778-0.234-10.022,0.198-14.484,1.871C382.271,264.117,381.093,261.272,379.666,258.539z      M390.901,266.751c2.266-0.241,4.522-0.281,6.782-0.195c0.161,4.085,0.05,8.223-0.368,12.46     c-3.262-1.086-6.669-1.801-10.014-2.251c-0.836-0.112-1.671-0.211-2.507-0.298c-0.143-2.792-0.601-5.544-1.319-8.235     C385.929,267.656,388.356,267.022,390.901,266.751z M396.407,254.145c-2.729-0.189-5.939,0.626-8.414,1.104     c-3.007,0.581-5.92,1.398-8.777,2.439c-1.615-2.961-3.52-5.782-5.632-8.426c2.955,0.137,6.018-0.567,8.778-1.366     c2.19-0.634,4.332-1.427,6.474-2.208c1.776-0.648,3.667-1.188,5.373-2.035C395.095,247.176,395.833,250.662,396.407,254.145z      M382.949,246.355c-3.455,1.109-6.771,1.577-10.277,1.791c-2.161-2.581-4.515-4.981-6.99-7.152     c-0.777-0.682-1.567-1.335-2.368-1.964c4.386,0.043,8.764-0.535,13.047-1.568c3.034-0.732,6.005-1.7,8.889-2.89     c1.882-0.776,4.009-1.578,5.795-2.72c0.72,2.76,1.478,5.517,2.24,8.279c0.213,0.772,0.417,1.542,0.617,2.31     C390.196,243.24,386.537,245.203,382.949,246.355z M388.599,186.785c-2.935-0.645-5.339-2.715-7.884-4.39     c-1.853-1.221-3.72-2.691-5.724-3.77c1.413-2.285,2.648-4.675,3.723-7.19c0.088-0.021,0.173-0.05,0.261-0.072     c1.749,1.552,3.735,2.815,5.792,3.971c1.735,0.976,4.103,2.442,6.326,3.03C390.087,181.103,389.264,183.919,388.599,186.785z      M385.423,174.21c-1.789-0.964-3.473-2.09-5.167-3.201c0.87-0.257,1.725-0.54,2.544-0.89c4.015-1.714,4.926-5.273,4.145-8.911     c1.157,0.82,2.366,1.566,3.561,2.249c1.723,0.983,4.082,2.445,6.303,3.034c-2.02,3.296-3.736,6.774-5.157,10.385     C389.684,175.848,387.332,175.239,385.423,174.21z M391.172,162.319c-1.704-0.944-3.276-2.055-4.846-3.174     c-1.306-3.429-3.898-6.628-6.571-8.08c-2.106-1.144-4.325-1.59-6.576-1.622c-1.016-0.76-2.317-1.115-3.601-1.537     c-2.834-0.933-4.86-2.5-7.016-4.286c1.592-1.947,3.401-3.74,5.304-5.377c0.687-0.591,1.407-1.125,2.096-1.68     c3.827,5.235,9.125,9.312,14.573,12.742c3.28,2.065,6.685,3.917,10.121,5.707c2.582,1.345,5.37,3.131,8.322,3.035     c-1.954,2.243-3.729,4.618-5.335,7.098C395.618,164.043,393.161,163.421,391.172,162.319z M331.001,83.83     c2.521,1.425,5.195,2.575,7.952,3.458c0.985,0.316,2.674,0.976,3.823,0.602c-0.786,0.992-1.522,2.022-2.236,3.068     c-4.88,0.395-9.677-0.3-14.418-1.642c-3.825-1.083-8.503-2.287-11.67-5.011c1.354-4.35,3.369-8.313,5.99-11.883     C322.402,77.326,326.461,81.263,331.001,83.83z M320.963,71.724c1.886-2.458,4.06-4.727,6.511-6.8     c1.384,4.435,3.43,8.354,7.315,11.305c2.326,1.767,4.921,3.048,7.618,4.143c1.826,0.741,3.677,1.545,5.606,1.817     c-1.561,1.459-3.022,3.021-4.391,4.66c-0.08-0.167-0.242-0.297-0.436-0.296c-4.4,0.031-8.934-2.246-12.631-4.492     C326.217,79.426,323.696,75.761,320.963,71.724z M324.964,90.388c3.136,0.928,6.292,1.514,9.532,1.949     c1.659,0.223,3.365,0.401,5.007,0.174c-0.977,1.55-1.875,3.152-2.683,4.805c-0.691,1.413-1.31,2.844-1.87,4.288     c-0.88,0.056-1.784-0.004-2.61-0.041c-2.858-0.128-5.675-0.603-8.502-1.015c-2.228-0.325-4.504-0.62-6.63-1.394     c-1.953-0.711-3.654-1.826-5.37-2.948c0.548-3.247,1.178-6.471,1.971-9.636c0.098-0.391,0.211-0.773,0.32-1.158     C316.771,88.193,321.706,89.424,324.964,90.388z M316.903,100.259c2.776,1.022,5.761,1.347,8.668,1.797     c2.702,0.418,5.413,0.788,8.152,0.82c0.245,0.003,0.498,0.004,0.754,0.003c-0.876,2.436-1.563,4.91-2.094,7.406     c-3.682,0.972-8.056,0.531-11.725-0.087c-3.03-0.51-7.659-1.582-10.337-3.799c0.417-3.05,0.845-6.107,1.341-9.147     C313.328,98.401,314.979,99.551,316.903,100.259z M319.892,111.383c2.499,0.479,5.068,0.684,7.609,0.712     c1.509,0.017,3.118,0.077,4.586-0.327c-0.125,0.674-0.251,1.349-0.351,2.026c-0.028,0.07-0.067,0.135-0.093,0.206     c-0.08,0.219-0.079,0.434-0.025,0.633c-0.402,3.004-0.568,6.031-0.522,9.059c-3.239,0.858-7.443-0.012-10.484-0.395     c-4.021-0.507-8.529-1-12.006-3.264c0.132-1.93,0.342-3.874,0.63-5.837c0.323-2.206,0.626-4.431,0.93-6.66     C312.866,109.658,316.894,110.808,319.892,111.383z M321.548,124.724c1.298,0.155,6.503,1.132,9.596,0.509     c0.117,2.976,0.455,5.948,0.966,8.899c-3.517,0.969-7.364,0.697-10.954,0.25c-4.271-0.532-8.34-1.747-12.333-3.298     c-0.361-3.267-0.452-6.566-0.28-9.913C312.206,123.755,317.229,124.209,321.548,124.724z M322.002,135.821     c2.478,0.267,4.995,0.343,7.484,0.18c0.931-0.061,1.955-0.134,2.882-0.416c0.523,2.691,1.202,5.359,2.024,7.989     c-1.231,0.407-2.431,0.926-3.744,1.158c-2.368,0.418-4.798,0.566-7.2,0.579c-3.806,0.02-7.618-0.422-11.404-0.834     c-1.538-4.043-2.534-8.118-3.077-12.245C313.112,134.118,317.437,135.33,322.002,135.821z M323.915,146.586     c2.064-0.015,4.131-0.158,6.173-0.46c1.711-0.253,3.174-0.779,4.712-1.305c0.722,2.178,1.538,4.329,2.453,6.44     c-5.724-1.689-11.426-3.665-17.355-4.817C321.226,146.544,322.564,146.596,323.915,146.586z M336.238,114.18     c1.631-0.944,3.159-2.098,4.857-2.971c3.405-1.749,7.116-2.829,10.877-3.495c4.022-0.712,8.1-0.817,12.174-0.796     c3.223,0.016,6.647,0.469,9.818-0.213c0.059,0.027,0.119,0.056,0.179,0.082c-6.929,1.556-13.77,3.598-20.234,6.446     c-1.848,0.814-1.815,3.989,0.462,4.182c8.079,0.687,15.922,2.217,23.683,4.429c-1.537,0.821-3.013,1.834-4.457,2.605     c-3.268,1.745-6.621,3.304-10.034,4.744c-1.695,0.715-1.678,3.01-0.094,3.826c1.069,0.551,2.226,0.973,3.437,1.305     c-3.303,2.027-6.317,5.576-8.203,7.969c-1.902,2.413-5.844,7.365-6.085,11.205c-1.108,0.177-2.219,0.339-3.335,0.469     c-2.159-0.267-4.29-0.686-6.408-1.19c-0.038-0.12-0.076-0.24-0.136-0.361C336.887,140.534,334.221,127.057,336.238,114.18z      M375.07,115.893c0.032,0.24,0.094,0.538,0.184,0.85c-1.478-0.349-2.963-0.662-4.449-0.974c-0.096-0.301-0.157-0.625-0.173-0.985     c-0.037-0.855,0.126-1.709,0.327-2.559c1.451-0.369,2.905-0.729,4.365-1.076C374.968,112.692,374.854,114.28,375.07,115.893z      M369.486,115.479c-2.018-0.409-4.042-0.786-6.073-1.126c2.083-0.663,4.183-1.254,6.294-1.808     C369.493,113.518,369.364,114.497,369.486,115.479z M383.148,118.823c-0.058-0.021-0.107-0.048-0.168-0.066     c-2.086-0.609-4.186-1.154-6.29-1.671c-1.05-1.44-0.722-4.102-0.156-6.227c1.606-0.378,3.216-0.751,4.831-1.13     c-0.176,0.671-0.261,1.382-0.221,2.143C381.284,114.562,383.131,116.124,383.148,118.823z M381.764,131.4     c-1.141-0.079-2.282-0.157-3.422-0.236c-0.517-1.443-1.105-2.972-0.966-4.378c1.749-0.966,3.517-2.022,4.804-3.473     c-0.517,1.577-1.036,3.149-1.024,4.882C381.162,129.376,381.389,130.431,381.764,131.4z M377.024,131.074l-1.692-0.117     c-1.681-0.116-3.401-0.155-5.086-0.348c1.758-0.881,3.497-1.801,5.214-2.768c0.195-0.11,0.395-0.219,0.594-0.329     C376.083,128.72,376.454,129.961,377.024,131.074z M357.622,151.514c1.151-2.458,2.574-4.816,4.223-6.977     c2.185,2.75,5.542,3.705,8.722,5.039c-2.284,0.254-4.569,0.824-6.772,1.439c-2.204,0.616-4.417,1.16-6.64,1.633     C357.293,152.28,357.439,151.903,357.622,151.514z M392.786,152.468c-2.932-1.558-5.83-3.185-8.628-4.974     c-5.077-3.248-9.53-7.063-13.398-11.608c0.256-0.231,0.506-0.467,0.738-0.721c4.478,0.498,9.249,0.305,13.261,0.576     c0.145,0.01,0.281,0.002,0.414-0.013c0.402,0.306,0.822,0.601,1.27,0.878c5.211,3.222,11.011,5.548,16.293,8.771     c2.854,1.741,5.841,3.382,9.031,4.383c-2.683,2.064-5.129,4.337-7.386,6.757c-0.016,0.002-0.029-0.003-0.045,0.001     C400.376,157.336,396.167,154.265,392.786,152.468z M391.827,91.796c-0.133,0.785-0.184,1.572-0.232,2.407     c-0.22,3.871-0.907,5.819-4.002,8.219c-1.073,0.832-2.22,1.719-3.247,2.706c-0.299-0.125-0.599-0.25-0.898-0.375     c0.486-4.465,1.062-9.077,4.25-12.444C389.089,92.19,390.471,92.034,391.827,91.796z M385.832,92.444     c-2.418,3.132-3.918,7.849-3.57,11.814c-1.968-0.821-3.935-1.645-5.902-2.468c0.449-1.507,0.947-2.995,1.547-4.452     c0.123-0.298,1.617-3.149,2.624-4.783C382.301,92.558,384.073,92.54,385.832,92.444z M379.023,92.549     c-1.77,2.654-2.675,5.786-3.459,8.908c-1.531-0.642-3.057-1.295-4.586-1.941c-0.535-2.284,0.38-4.976,1.637-7.076     C374.719,92.474,376.858,92.524,379.023,92.549z M364.207,93.653c0.156-0.481,0.382-0.918,0.628-1.341     c2.012,0.047,4.023,0.083,6.032,0.1c0.063,0,0.129,0.003,0.193,0.003c-1.009,1.918-1.905,4.456-1.758,6.392     c-1.102-0.468-2.207-0.928-3.307-1.4c-0.669-0.287-1.422-0.576-2.204-0.868C363.803,95.565,363.9,94.599,364.207,93.653z      M363.189,92.269c-0.503,1.203-0.689,2.575-0.533,3.848c-3.258-1.185-7.071-2.494-10.127-4.302     C356.079,92.028,359.634,92.171,363.189,92.269z M361.66,99.737c2.305,0.997,4.599,2.018,6.898,3.027     c-6.174-0.946-13.369-0.124-18.561,0.804c-3.597,0.643-8.431,1.879-12.312,4.087c1.004-3.462,2.379-6.85,4.16-10.12     c1.142-2.096,2.43-4.075,3.839-5.948C350.454,95.325,356.097,97.33,361.66,99.737z M349.282,81.047     c-0.844-0.13-1.699-0.19-2.539-0.419c-1.219-0.331-2.423-0.891-3.593-1.359c-2.616-1.046-5.145-2.246-7.424-3.921     c-2.084-1.531-3.915-3.426-5.186-5.691c-0.962-1.713-1.465-3.629-2.202-5.436c2.364-1.907,4.902-3.606,7.539-5.126     c2.747,8.455,8.743,16.677,17.783,18.505C352.13,78.664,350.679,79.827,349.282,81.047z M355.246,76.507     c-0.021,0.013-0.04,0.028-0.06,0.041c-2.194-0.773-4.331-1.223-6.44-2.417c-2.33-1.319-4.568-2.944-6.347-4.96     c-2.722-3.084-4.138-6.823-5.759-10.504c0.821-0.46,1.645-0.913,2.48-1.342c1.516-0.778,3.098-1.443,4.673-2.122     c0.732,1.908,1.265,3.797,2.63,5.56c1.645,2.126,3.758,3.853,6.044,5.248c4.261,2.6,8.735,4.145,13.475,5.067     C362.247,72.628,358.631,74.345,355.246,76.507z M342.682,48.832c-0.587-0.04-1.174-0.081-1.761-0.121     c-0.667-0.046-1.341-0.079-2.016-0.115c-0.065-0.588-0.094-1.183-0.1-1.775c0.751-0.402,1.5-0.807,2.243-1.226     c0.503-0.283,1.026-0.566,1.552-0.854C342.429,46.095,342.446,47.468,342.682,48.832z M348.737,36.576     c-0.058-0.021-0.107-0.048-0.168-0.066c-2.156-0.63-4.327-1.191-6.503-1.722c-0.251-1.407-0.017-3.083,0.184-4.192     c0.133-0.733,0.325-1.442,0.544-2.143c1.383-0.324,2.77-0.645,4.159-0.971c-0.175,0.671-0.261,1.382-0.221,2.143     C346.872,32.315,348.72,33.877,348.737,36.576z M343.996,43.954c1.394-0.813,2.738-1.721,3.772-2.886     c-0.517,1.577-1.036,3.149-1.025,4.882c0.008,1.179,0.235,2.234,0.61,3.204c-1.169-0.081-2.337-0.161-3.506-0.241     C343.462,47.438,343.657,45.544,343.996,43.954z M369.082,69.801c-0.214,0.084-0.426,0.171-0.639,0.256     c-2.193-0.411-4.448-0.571-6.593-1.236c-3.035-0.942-5.998-2.308-8.723-3.94c-2.483-1.488-4.689-3.385-6.368-5.754     c-0.952-1.343-1.481-2.848-2.213-4.254c1.073-0.47,2.14-0.951,3.169-1.498c0.904,0.026,1.785,0.063,2.631,0.12     c0.145,0.01,0.282,0.002,0.414-0.013c0.402,0.306,0.822,0.601,1.27,0.878c5.211,3.222,11.011,5.549,16.293,8.771     c2.469,1.506,5.036,2.942,7.748,3.952C373.648,67.918,371.283,68.932,369.082,69.801z M455.438,59.98     c1.612-1.62,3.043-3.456,4.419-5.313c-0.162,1.916-0.83,4.01-1.358,5.456c-0.378,1.035-1.008,2.015-1.354,3.037     c-1.038-0.644-2.312-1.127-3.655-1.505C454.208,61.185,454.866,60.554,455.438,59.98z M450.351,54.308     c0.055,2.197,0.011,4.381-0.34,6.553c-1.407-0.271-2.7-0.491-3.637-0.736c-0.245-0.064-0.476-0.141-0.714-0.212     C447.567,58.366,448.977,56.392,450.351,54.308z M441.108,58.053c-1.59-0.842-3.059-1.819-4.487-2.861     c1.235-1.297,2.323-2.705,3.368-4.167C440.611,53.325,440.954,55.674,441.108,58.053z M433.248,45.492     c-1.038,1.663-2.279,3.034-3.577,4.405c-0.712-0.512-1.441-1.015-2.201-1.5c-3.771-2.408-7.85-3.253-12.065-3.769     c-0.386-1.857-0.999-7.191-3.736-6.023c-1.088,0.464-1.782,2.17-2.407,3.094c-0.47,0.694-1,1.376-1.466,2.09     c-6.877-0.877-13.655-2.494-20.245-4.658c3.729-1.227,7.536-2.091,11.436-2.531c0.057,0.058,0.118,0.113,0.198,0.157     c0.546,0.303,0.958,2.116,1.222,2.702c0.416,0.925,0.838,1.846,1.275,2.761c0.316,0.662,1.19,1.052,1.831,0.532     c1.96-1.589,2.708-4.075,4.563-5.76c0.165-0.15,0.276-0.335,0.343-0.534c3.017,0.282,6.003,0.827,8.995,1.307     c0.439,2.531,1.24,6.323,3.579,6.686c2.272,0.352,3.98-3.119,4.948-5.507c1.247,2.655,1.442,7.599,4.389,7.775     c2.5,0.15,4.509-4.313,5.723-7.455c0.859,2.881,0.107,6.444,1.263,9.294c0.189,0.467,0.57,0.722,0.985,0.775     c-0.853,1.227-1.68,2.466-2.464,3.732c-0.229-2.324-0.381-4.653-0.559-6.982C435.206,45.174,433.781,44.639,433.248,45.492z      M434.35,53.466c-0.867-0.675-1.738-1.357-2.625-2.039c0.659-0.699,1.268-1.458,1.831-2.245     C433.835,50.607,434.108,52.034,434.35,53.466z M413.179,44.378c-0.879-0.091-1.763-0.178-2.651-0.27     c0.485-0.774,0.939-1.564,1.409-2.262c0.087-0.129,0.174-0.257,0.26-0.386c0.027,0.047,0.047,0.09,0.088,0.143     c0.075,0.255,0.156,0.508,0.243,0.76C412.748,43.034,412.962,43.706,413.179,44.378z M401.2,36.399     c1.093-0.076,2.192-0.128,3.302-0.133c0.231-0.001,0.461,0.01,0.692,0.013c-0.811,1.045-1.348,2.314-2.122,3.409     c-0.415-0.798-0.839-1.591-1.295-2.363C401.591,37.012,401.407,36.691,401.2,36.399z M419.031,38.01     c1.541,0.228,3.085,0.42,4.637,0.53c-0.371,0.667-0.775,1.316-1.216,1.946c-0.494,1.55-1.001,1.761-1.523,0.634     C420.164,40.696,419.537,39.295,419.031,38.01z M428.317,38.637c1.737-0.017,3.461-0.059,5.178-0.11     c-0.377,0.815-0.773,1.621-1.206,2.413c-2.586,4.731-2.015,2.674-3.131-0.163C428.84,39.969,428.6,39.272,428.317,38.637z      M439.094,45.462c-0.381-2.372-0.102-4.819-0.711-7.063c1.645-0.033,3.293-0.045,4.947-0.016     C442.238,40.957,440.85,43.288,439.094,45.462z M447.884,46.301c-0.375-2.577-0.2-5.206-0.686-7.762     c0.847,0.055,1.696,0.116,2.551,0.205c0.95,0.099,1.925,0.214,2.915,0.333C451.295,41.656,449.716,44.048,447.884,46.301z      M456.716,48.231c-0.059-2.939,0.307-5.84-0.297-8.711c2.37,0.262,4.784,0.47,7.159,0.491     C461.582,43.003,459.304,45.726,456.716,48.231z M358.698,20.616c2.69-3.421,1.47-10.872,4.739-12.957     c3.943-2.515,11.3-1.317,15.711-1.337c12.529-0.056,24.431,1.183,35.929,5.894c0.938,0.996,1.454,2.32,1.571,3.813     c0.155,1.972-0.767,3.966-0.319,5.889c0.133,0.577,0.817,0.85,1.242,0.363c1.922-2.203,1.916-5.969,0.498-8.759     c0.167,0.078,0.334,0.148,0.501,0.227c2.361,1.125,4.785,2.37,7.246,3.547c0.482,1.118,0.685,2.358,0.549,3.654     c-0.204,1.935-1.383,3.452-1.777,5.32c-0.103,0.492,0.426,0.826,0.853,0.683c2.63-0.883,3.463-4.148,3.31-6.681     c-0.037-0.611-0.156-1.197-0.317-1.767c1.563,0.693,3.138,1.324,4.72,1.859c0.374,0.781,0.648,1.614,0.787,2.508     c0.233,1.499-0.14,3.062,0.435,4.49c0.138,0.342,0.616,0.523,0.92,0.267c1.862-1.56,1.624-4.1,0.622-6.455     c1.744,0.424,3.503,0.62,5.267,0.683c0.581,0.514,1.085,1.101,1.365,1.816c0.551,1.41-0.443,2.79-0.734,4.161     c-0.116,0.543,0.481,0.948,0.961,0.771c2.007-0.742,2.814-3.06,2.241-5.039c-0.186-0.643-0.501-1.207-0.886-1.723     c7.085-0.269,14.209-2.04,20.879-0.09c3.496,1.022,6.178,3.567,7.132,7.154c1.189,4.471-0.444,6.405-4.988,7.273     c-6.126,1.169-13.592-0.78-19.722-1.437c-5.375-0.576-10.58-0.687-15.96-0.179c-6.689,0.631-12.979,0.241-19.631-0.507     c-10.498-1.181-21.076-0.198-31.092,3.214c-1.693,0.577-1.682,3.118-0.094,3.807c10.722,4.651,21.517,6.734,33.099,7.876     c6.124,0.604,10.762,2.493,15.556,6.377c3.924,3.179,7.641,6.254,12.497,7.877c1.842,0.615,3.741,1.03,5.63,1.469     c1.139,0.265,2.29,0.494,3.424,0.785c1.499,0.385,4.605,0.244,4.076,1.899c-0.58,1.811-5.252,2.664-6.708,2.847     c-3.082,0.388-6.009-0.116-8.954-0.965c-5.408-1.559-10.362-4.35-15.724-6.057c-4.984-1.587-10.172-2.407-15.398-2.519     c-4.606-0.099-9.122,0.414-13.586,1.54c-6.262,1.579-12.007,3.201-18.292,0.702c-4.703-1.87-8.722-5.114-13.121-7.561     c-4.267-2.373-12.177-3.986-11.934-10.155c0.148-3.756,2.692-6.992,1.899-10.896c-0.596-2.936-1.933-6.075,0.068-8.693     C354.666,23.667,357.163,22.568,358.698,20.616z M353.838,10.012c1.204-0.115,2.401-0.256,3.577-0.463     c-0.133,0.785-0.185,1.572-0.232,2.407c-0.22,3.871-0.908,5.819-4.002,8.219c-1.064,0.825-2.201,1.706-3.222,2.684     c-0.309-3.106-0.21-6.284,1.073-9.181C351.74,12.082,352.72,11.002,353.838,10.012z M346.001,10.308     c1.872,0.006,3.747-0.012,5.608-0.12c-0.557,0.71-1.039,1.469-1.417,2.208c-1.589,3.113-1.787,6.585-1.428,9.997     c-1.419-0.592-2.837-1.186-4.255-1.779c-0.496-2.02-0.74-4.03-0.303-6.145C344.535,12.88,345.214,11.583,346.001,10.308z      M336.836,12.704c0.259-0.979,0.713-1.76,1.232-2.513c1.997,0.033,4.024,0.082,6.079,0.111c-1.636,2.819-2.003,6.633-1.064,9.715     c-2.158-0.903-4.31-1.821-6.465-2.731C336.538,15.751,336.437,14.217,336.836,12.704z M328.121,13.826     c-3.23-1.173-6.985-2.472-10.003-4.257c3.586,0.215,7.178,0.358,10.77,0.456C328.307,11.19,328.029,12.558,328.121,13.826z      M331.584,15.16c-0.668-0.287-1.418-0.575-2.198-0.866c-0.013-0.784,0.045-1.562,0.296-2.339     c0.242-0.748,0.613-1.337,1.042-1.883c1.836,0.041,3.671,0.073,5.505,0.09c-0.959,1.923-1.09,4.474-0.741,6.647     C334.187,16.258,332.882,15.717,331.584,15.16z M282.606,23.363c6.586-1.07,13.219-1.65,19.918-1.722     c6.011-0.065,11.972,0.486,17.947,0.923c-8.171,2.04-15.9,5.925-22.951,10.971C292.906,29.543,287.956,26.166,282.606,23.363z      M264.565,41.317c9.018-2.289,18.14-3.517,27.471-3.516c-4.111,3.462-7.937,7.292-11.424,11.335     C275.352,46.087,270.096,43.502,264.565,41.317z M251.571,65.4c7.676-5.361,16.033-8.952,25.092-11.417     c-2.731,3.559-5.203,7.223-7.374,10.896c-0.663,1.122-1.305,2.261-1.937,3.407c-0.033-0.01-0.058-0.032-0.092-0.041     C262.065,66.938,256.849,66.055,251.571,65.4z M243.971,87.137c6.413-5.158,13.298-9.641,20.586-13.473     c-2.49,5.089-4.627,10.367-6.288,15.782c-0.117-0.051-0.231-0.107-0.362-0.129C253.258,88.545,248.632,87.749,243.971,87.137z      M239.255,110.468c5.601-5.608,11.462-10.929,17.603-15.945c-1.152,4.676-1.932,9.437-2.26,14.246     c-0.089,1.31-0.12,2.614-0.128,3.917c-0.18,0.033-0.36,0.099-0.532,0.202C249.094,111.588,244.218,110.776,239.255,110.468z      M242.596,132.133c4.127-4.737,8.646-9.57,12.001-14.777c0.338,5.462,1.33,10.84,2.843,16.081     C252.504,132.813,247.56,132.379,242.596,132.133z M260.939,149.467c-1.494-0.201-8.395-0.317-11.022-1.166     c2.452-3.674,6.048-7.037,8.964-10.357c1.437,4.104,3.179,8.112,5.169,11.997C263.112,149.727,262.083,149.621,260.939,149.467z      M259.039,110.609c0.5-15.13,5.984-29.849,13.512-42.837c6.924-11.944,16.163-22.664,27.619-30.471     c12.43-8.471,26.378-12.087,41.199-13.406c0.103-0.009,0.194-0.047,0.286-0.082c0.152,0.067,0.304,0.133,0.455,0.2     c-7.74,1.613-15.41,3.799-22.614,6.974c-1.848,0.814-1.815,3.989,0.462,4.182c8.079,0.687,15.922,2.217,23.683,4.429     c-1.537,0.821-3.013,1.834-4.457,2.605c-3.269,1.745-6.621,3.304-10.034,4.744c-1.695,0.715-1.678,3.01-0.094,3.826     c2.918,1.503,6.46,2.08,10.088,2.33c-4.643,2.157-9.051,5.226-12.55,7.986c-7.231,5.702-12.57,13.102-15.248,21.946     c-3.153,10.411-4.145,21.842-5.621,32.598c-1.439,10.488-0.343,19.868,2.937,29.606c-9.911-0.294-19.915,1.21-29.602,3.008     c-3.01,0.559-6.459,1.176-9.115,2.904C262.98,138.727,258.563,124.997,259.039,110.609z M340.727,34.468     c-1.617-0.38-3.241-0.726-4.867-1.063c-0.042-0.191-0.098-0.376-0.123-0.573c-0.117-0.896-0.111-1.775-0.019-2.644     c1.9-0.493,3.808-0.96,5.725-1.413C340.873,30.629,340.595,32.61,340.727,34.468z M334.427,33.108     c-1.804-0.359-3.611-0.697-5.426-1.001c1.823-0.581,3.661-1.102,5.506-1.596C334.404,31.367,334.367,32.25,334.427,33.108z      M337.609,48.504c-0.593-0.04-1.187-0.074-1.775-0.142c0.581-0.291,1.157-0.594,1.734-0.894     C337.573,47.809,337.586,48.156,337.609,48.504z M268.931,169.018c2.131-3.795-0.221-10.969,2.688-13.532     c3.509-3.092,10.962-3.041,15.318-3.739c12.371-1.985,24.322-2.592,36.407,0.293c1.081,0.839,1.794,2.069,2.14,3.526     c0.457,1.925-0.147,4.037,0.591,5.867c0.221,0.55,0.939,0.714,1.284,0.168c1.56-2.473,0.974-6.193-0.856-8.731     c0.177,0.051,0.353,0.095,0.53,0.147c2.507,0.749,5.093,1.605,7.706,2.389c0.649,1.03,1.04,2.225,1.105,3.525     c0.096,1.943-0.835,3.624-0.938,5.53c-0.027,0.502,0.548,0.751,0.948,0.544c2.463-1.278,2.783-4.632,2.241-7.111     c-0.131-0.598-0.338-1.158-0.585-1.697c1.651,0.444,3.304,0.825,4.95,1.111c0.489,0.714,0.888,1.495,1.163,2.357     c0.462,1.445,0.334,3.047,1.121,4.369c0.188,0.316,0.689,0.421,0.951,0.122c1.6-1.828,0.973-4.301-0.379-6.474     c1.788,0.15,3.556,0.073,5.309-0.136c0.653,0.418,1.242,0.92,1.629,1.585c0.762,1.308-0.008,2.825-0.085,4.225     c-0.03,0.555,0.621,0.863,1.069,0.613c1.869-1.042,2.309-3.457,1.439-5.324c-0.283-0.607-0.682-1.116-1.141-1.566     c6.96-1.357,13.725-4.203,20.617-3.303c3.612,0.472,6.654,2.573,8.148,5.971c1.863,4.235,0.547,6.397-3.809,7.954     c-5.873,2.098-13.549,1.321-19.708,1.616c-5.399,0.258-10.56,0.95-15.797,2.28c-6.511,1.653-12.787,2.236-19.475,2.521     c-10.555,0.449-20.855,3.049-30.226,7.962c-1.584,0.831-1.182,3.34,0.493,3.776c11.31,2.945,22.297,3.342,33.917,2.687     c6.145-0.346,11.018,0.807,16.352,3.906c4.367,2.537,8.513,5.004,13.561,5.859c1.914,0.324,3.855,0.442,5.789,0.584     c1.166,0.086,2.339,0.136,3.504,0.249c1.541,0.15,4.589-0.467,4.32,1.249c-0.294,1.879-4.779,3.441-6.19,3.846     c-2.986,0.858-5.956,0.81-8.996,0.425c-5.583-0.708-10.908-2.703-16.469-3.564c-5.169-0.8-10.422-0.812-15.603-0.118     c-4.567,0.612-8.949,1.814-13.187,3.613c-5.945,2.524-11.37,5.011-17.965,3.51c-4.935-1.124-9.405-3.711-14.129-5.451     c-4.581-1.688-12.646-2.064-13.355-8.197c-0.432-3.734,1.583-7.323,0.199-11.059c-1.041-2.809-2.845-5.705-1.272-8.6     C265.416,172.653,267.714,171.184,268.931,169.018z M324.04,178.637c-1.003,0.626-1.427,2.419-1.902,3.428     c-0.357,0.758-0.775,1.514-1.127,2.291c-6.931,0.192-13.876-0.363-20.72-1.485c3.496-1.787,7.124-3.226,10.911-4.261     c0.064,0.048,0.134,0.093,0.219,0.125c0.587,0.215,1.273,1.943,1.624,2.482c0.553,0.85,1.112,1.695,1.684,2.532     c0.414,0.606,1.338,0.856,1.892,0.244c1.692-1.871,2.048-4.444,3.621-6.394c0.14-0.174,0.221-0.374,0.257-0.58     c3.025-0.186,6.059-0.107,9.088-0.093c0.823,2.434,2.199,6.057,4.566,6.055c2.298-0.002,3.453-3.695,4.041-6.203     c1.641,2.432,2.595,7.286,5.534,7.007c0.991-0.094,1.788-0.909,2.44-2.049c0.05,0.184,0.105,0.367,0.177,0.553     c-0.76,1.73-1.741,3.231-2.777,4.736c-0.782-0.396-1.58-0.781-2.406-1.144c-4.097-1.799-8.257-2.005-12.502-1.867     C327.991,182.237,326.565,177.061,324.04,178.637z M326.42,184.109c-0.883,0.046-1.77,0.096-2.661,0.142     c0.36-0.84,0.686-1.69,1.044-2.452c0.066-0.14,0.132-0.281,0.198-0.421c0.034,0.042,0.06,0.082,0.109,0.127     c0.113,0.241,0.232,0.479,0.357,0.713C325.787,182.848,326.103,183.479,326.42,184.109z M313.356,178.07     c1.069-0.243,2.146-0.464,3.242-0.64c0.228-0.037,0.457-0.062,0.686-0.094c-0.64,1.158-0.976,2.494-1.572,3.695     c-0.533-0.724-1.074-1.443-1.644-2.135C313.837,178.615,313.606,178.327,313.356,178.07z M331.223,176.917     c1.557-0.012,3.112-0.06,4.663-0.19c-0.264,0.716-0.564,1.42-0.903,2.11c-0.249,1.607-0.718,1.895-1.407,0.861     C332.755,179.396,331.92,178.108,331.223,176.917z M340.495,176.106c1.714-0.284,3.41-0.591,5.099-0.905     c-0.247,0.864-0.514,1.721-0.82,2.57c-1.827,5.073-1.579,2.952-3.119,0.321C341.216,177.342,340.872,176.691,340.495,176.106z      M347.294,185.72c0.496,1.365,0.986,2.732,1.445,4.11c-0.961-0.533-1.926-1.073-2.908-1.61     C346.374,187.427,346.859,186.584,347.294,185.72z M265.96,158.28c-0.01,0.796,0.06,1.582,0.141,2.414     c0.379,3.858-0.001,5.89-2.689,8.737c-0.932,0.987-1.929,2.04-2.792,3.174c-0.019-0.005-0.037-0.009-0.056-0.014     c-0.416-1.77-0.656-3.536-0.637-5.514c0.023-2.396-0.127-5.294,1.134-7.431C262.728,159.268,264.369,158.823,265.96,158.28z      M227.134,164.35c2.804-0.266,5.605-0.579,8.402-0.921c-0.127,1.068-0.083,2.151,0.172,3.201     C232.842,166.063,229.774,165.403,227.134,164.35z M242.135,167.853c0.007,0.055,0.02,0.11,0.029,0.165     c-0.288-0.073-0.576-0.143-0.863-0.217c-1.253-0.321-2.724-0.61-4.281-0.913c-0.342-1.085-0.347-2.404-0.168-3.632     c1.991-0.251,3.982-0.503,5.967-0.783C242.211,164.212,241.904,166.062,242.135,167.853z M243.5,168.354     c-0.6-1.734-0.082-4.106,0.668-6.072c0.392-0.057,0.785-0.109,1.178-0.167c2.196-0.323,4.465-0.612,6.751-0.928     c-0.626,1.205-1.018,2.547-1.184,3.99c-0.162,1.41-0.298,3.454,0.199,5.087C248.573,169.637,246.036,168.997,243.5,168.354z      M252.874,170.699c-1.296-2.983-0.952-6.899,0.788-9.74c2.115-0.308,4.236-0.646,6.323-1.084     c-1.038,1.876-1.214,4.105-1.303,6.345c-0.074,1.863-0.128,3.979,0.215,5.962C256.889,171.689,254.882,171.194,252.874,170.699z      M241.357,184.943c1.879-0.938,3.785-1.809,5.705-2.651c0.028,0.646,0.125,1.292,0.307,1.927     c0.083,0.291,0.195,0.598,0.318,0.907C245.578,185.032,243.469,184.968,241.357,184.943z M249.167,185.199     c-0.2-0.326-0.377-0.676-0.513-1.067c-0.271-0.781-0.393-1.575-0.388-2.365c2.022-0.869,4.059-1.707,6.108-2.537     c-0.393,2.116-0.151,4.784,1.206,6.425C253.444,185.46,251.306,185.313,249.167,185.199z M255.446,182.582     c-0.357-1.279-0.318-2.536,0.007-3.789c0.976-0.394,1.95-0.787,2.929-1.183c-0.07,0.69-0.045,1.406,0.111,2.152     c0.554,2.636,2.62,3.895,3.052,6.559c-0.061-0.011-0.113-0.031-0.177-0.039c-1.416-0.184-2.833-0.337-4.251-0.48     C256.529,184.731,255.793,183.822,255.446,182.582z M257.817,199.332c-0.491-1.344-0.168-3.104-0.263-4.634     c1.413-1.117,2.784-2.325,3.725-3.789c-0.268,1.638-0.538,3.271-0.261,4.982c0.189,1.164,0.576,2.172,1.095,3.072     C260.682,199.085,259.249,199.209,257.817,199.332z M252.779,215.941c-0.32-0.086-2.572-0.404-2.716-0.782     c-0.099-0.258,3.357-2.734,3.622-2.948c2.725-2.2,5.492-4.331,8.162-6.579c-1.68,3.798-2.662,7.869-2.786,11.951     C256.968,217.032,254.869,216.504,252.779,215.941z M122.584,22.219c28.294,6.744,57.295,15.08,83.698,27.448     c5.817,2.725,12.273,5.881,16.836,10.513c6.636,6.736,2.337,16.695-0.148,24.52c-4.315,13.588-10.225,26.59-15.025,40.002     c-7.861,21.968-12.705,47.398-2.204,69.401c6.067,12.713,16.958,20.59,28.189,28.449c11.396,7.975,23.8,17.464,26.834,31.738     c-0.948-0.003-1.87-0.064-2.74-0.185c-2.884-7.448-8.688-13.634-15.347-18.46c-12.18-8.828-25.431-14.931-34.49-27.466     c-17.466-24.17-17.85-55.579-9.04-83.098c2.357-7.361,5.318-14.512,8.726-21.446c3.157-6.423,7.178-12.603,9.207-19.522     c1.374-4.687,1.764-9.831-0.321-14.378c-2.784-6.072-9.068-9.49-14.811-12.276c-10.006-4.854-20.809-8.308-31.61-11.372     c-3.735-2.017-7.862-3.595-11.621-5.291c-4.514-2.036-9.06-4.002-13.631-5.906c-10.608-4.418-21.39-8.423-32.289-12.062     c-8.177-2.731-16.438-5.296-24.771-7.605C99.613,17.179,111.14,19.491,122.584,22.219z M45.879,9.741     c3.847,0.352,7.688,0.756,11.527,1.186c18.012,4.42,35.936,9.09,53.535,15.043c10.288,3.48,20.449,7.315,30.493,11.443     c2.01,0.826,4.008,1.684,6.008,2.537c-12.142-3.017-24.393-5.598-36.721-7.729c-16.468-2.846-32.908-4.606-49.397-5.818     C58.626,18.918,52.653,13.745,45.879,9.741z M44.323,64.469c-5.861-15.886-19.605-26.143-33.519-34.925     c3.781-0.046,7.562-0.056,11.343-0.03c28.848,3.884,57.495,9.159,85.789,16.031c15.96,3.876,31.803,8.235,47.498,13.071     c11.596,3.573,23.967,6.887,34.581,13.063c-12.059,0.125-23.992,2.544-35.709,5.349c-14.613,3.499-29.12,7.473-43.44,12.026     C96.844,93.512,83,98.514,69.372,104.062c-11.767,4.791-23.991,9.556-35.039,15.991C43.97,103.355,51.269,83.295,44.323,64.469z      M35.273,121.855c11.774-4.572,23.155-10.276,34.884-14.953c13.361-5.328,26.921-10.174,40.635-14.513     c13.412-4.243,26.979-8.03,40.688-11.189c13.405-3.089,26.865-5.882,40.621-5.757c-4.586,0.992-9.151,2.825-13.325,4.379     c-6.59,2.454-13.024,5.331-19.272,8.556c-12.9,6.658-24.911,14.821-36.324,23.768c-12.429,9.744-24.09,20.419-35.513,31.312     c-5.41,5.16-10.868,10.293-16.115,15.62c-1.641,1.666-3.465,3.46-5.204,5.373c1.951-7.694,1.384-15.982-2.174-23.37     C58.893,130.114,47.316,122.807,35.273,121.855z M63.343,175.572c4.283-4.758,7.784-10.193,12.389-14.781     c4.886-4.868,9.894-9.623,14.886-14.382c10.96-10.447,22.136-20.692,34.003-30.109c11.331-8.991,23.355-17.204,36.129-24.013     c6.432-3.429,13.061-6.495,19.887-9.058c3.036-1.14,6.243-2.013,9.414-2.967c-9.167,7.344-17.239,16.944-24.668,25.556     c-9.75,11.304-18.685,23.32-26.702,35.912c-14.537,22.832-25.905,47.551-33.915,73.382     C103.609,193.454,85.417,175.791,63.343,175.572z M145.42,204.605c-1.008,7.981-2.415,16.957-1.916,25.27     c-8.665-10.77-23.353-14.735-36.258-9.778c7.877-26.683,19.364-52.23,34.12-75.829c7.907-12.646,16.724-24.716,26.401-36.066     c4.707-5.521,9.627-10.844,14.697-16.033c4.069-4.165,8.514-8.067,12.501-12.334c-10.593,15.497-20.443,32.093-26.019,49.971     c-8.259,14.616-14.101,31.047-18.246,47.099C148.348,186.017,146.599,195.27,145.42,204.605z M147.408,232.532     c0.99-8.575,0.439-17.472,1.39-26.09c1.064-9.646,2.789-19.23,5.095-28.656c2.955-12.08,7.088-23.541,11.819-34.823     c-0.835,4.679-1.35,9.44-1.472,14.292c-0.358,14.312,3.243,28.135,9.061,41.129c4.173,9.32,9.302,18.835,15.224,27.52     C175.235,220.838,158.272,223.23,147.408,232.532z M137.229,248.813c1.587-0.198,3.919,0.906,5.438,1.357     c5.435,1.613,10.413,4.059,15.417,6.566c-7.152,0.896-14.245,2.262-21.218,4.068c-0.36-3.092-0.762-6.202-0.871-9.292     C135.92,249.436,135.229,249.063,137.229,248.813z M108.053,257.891c0.729-0.442,4.212,0.079,5.032,0.152     c5.709,0.51,11.147,2.272,16.16,4.922c-5.17,1.607-10.26,3.456-15.234,5.564c-2.166,0.918-4.299,1.902-6.416,2.917     c-0.135-2.843-0.269-5.686-0.393-8.53C107.134,261.362,106.414,258.885,108.053,257.891z M78.158,274.045     c0.837-1.552,2.921-0.987,4.663-0.934c5.775,0.177,11.461,0.987,17.057,2.305c-6.314,3.487-12.369,7.43-18.118,11.815     c-0.878-2.825-1.757-5.649-2.635-8.474C78.706,277.408,77.454,275.351,78.158,274.045z M59.213,291.57     c5.576-1.876,11.483-1.822,17.007,0.101c-3.914,3.316-7.647,6.858-11.112,10.632C63.479,298.547,61.522,294.974,59.213,291.57z      M44.266,312.367c4.903-1.921,9.991-2.852,15.204-2.874c-0.272,0.395-0.548,0.788-0.816,1.186     c-3.06,3.221-6.019,6.62-8.85,10.158C47.951,318.019,46.105,315.196,44.266,312.367z M48.767,387.154     c-0.89,2.116-1.607,4.27-2.15,6.441c-0.94-0.74-2.482-0.719-3.896-0.46c-0.05-3.176,0.101-6.373,0.446-9.528     c0.813-0.205,1.627-0.395,2.508-0.388c1.571,0.013,3.045,0.477,4.554,0.804C49.712,385.049,49.216,386.087,48.767,387.154z      M43.892,402.567c0.519-0.15,1.035-0.147,1.555-0.188c-0.065,4.276,0.632,8.521,2.222,12.59     c-1.818-3.279-3.161-6.894-3.939-11.156c-0.068-0.372-0.121-0.751-0.182-1.126C43.663,402.645,43.775,402.601,43.892,402.567z      M43.359,401.51c-0.34-2.402-0.541-4.854-0.616-7.323c1.272-0.171,2.464-0.02,3.556,0.79c-0.442,2.063-0.697,4.137-0.798,6.208     c-0.519,0.021-1.067-0.005-1.403,0.079C43.845,401.328,43.599,401.413,43.359,401.51z M50.729,383.044     c-2.099-0.905-5.085-1.635-7.386-0.989c0.345-2.663,0.814-5.29,1.419-7.832c0.21-0.882,0.449-1.754,0.699-2.621     c1.253,0.798,2.479,1.634,3.671,2.54c0.848,0.645,1.69,1.32,2.404,2.116c0.674,0.75,1.138,1.633,1.809,2.373     C52.406,380.055,51.534,381.528,50.729,383.044z M54.002,377.632c-0.609-1.675-2.261-3.003-3.609-4.042     c-1.416-1.091-2.953-2.243-4.596-3.094c0.841-2.711,1.859-5.355,3.05-7.919c0.804,0.284,1.67,0.344,2.528,0.587     c1.518,0.43,2.973,1.066,4.327,1.875c2.049,1.224,3.44,2.937,5.02,4.548C58.246,372.064,55.991,374.75,54.002,377.632z      M61.629,368.695c-1.168-1.914-3.161-3.478-4.928-4.617c-1.741-1.122-4.827-2.816-7.255-2.773     c1.874-3.824,4.104-7.476,6.624-10.93c2.416,1.259,4.59,2.923,6.378,5.024c1.1,1.293,2.045,2.731,2.796,4.253     c0.712,1.443,1.022,3.045,1.704,4.476C65.089,365.552,63.314,367.078,61.629,368.695z M67.954,363.37     c-0.251-3.16-2.675-6.638-4.619-8.859c-1.855-2.12-4.094-3.832-6.601-5.037c1.966-2.617,4.089-5.123,6.342-7.503     c1.292,0.267,2.549,0.594,3.815,1.321c1.845,1.06,3.42,2.511,4.776,4.142c2.3,2.768,4.678,6.366,5.938,9.979     C74.227,359.132,70.994,361.128,67.954,363.37z M78.597,356.91c-0.328-1.178-0.895-2.307-1.516-3.476     c-1.293-2.433-2.676-4.848-4.441-6.974c-1.876-2.259-4.964-4.948-8.201-5.888c2.422-2.453,4.966-4.777,7.607-6.945     c0.372-0.305,0.755-0.594,1.13-0.893c2.818,2.874,5.634,5.818,7.803,9.208c1.201,1.878,2.196,3.882,2.851,6.017     c0.629,2.047,0.487,4.204,1.094,6.211C82.774,354.977,80.664,355.898,78.597,356.91z M92.515,351.773     c-2.256,0.573-4.491,1.265-6.693,2.059c1.057-3.703-1.427-8.763-3.283-11.811c-2.294-3.768-5.372-6.912-8.567-9.915     c3.29-2.567,6.72-4.93,10.28-7.076c3.265,3.686,5.799,7.867,7.241,12.642c0.769,2.544,1.241,5.174,1.367,7.83     C92.956,347.525,92.421,349.74,92.515,351.773z M96.033,350.97c-0.668,0.134-1.335,0.279-2,0.433     c0.498-1.996,0.285-4.461,0.172-6.289c-0.172-2.771-0.687-5.526-1.541-8.168c-1.504-4.646-4-9.012-7.434-12.491     c3.628-2.135,7.372-4.069,11.217-5.78c1.227,1.546,2.311,3.13,3.151,5.03c1.372,3.105,2.268,6.434,2.689,9.798     c0.391,3.115,0.381,6.267-0.041,9.379c-0.342,2.519-1.234,4.902-1.806,7.348C98.968,350.439,97.497,350.676,96.033,350.97z      M110.919,349.412c-2.99,0.044-5.975,0.261-8.948,0.624c0.93-2.225,1.322-4.794,1.617-7.063     c0.439-3.378,0.418-6.793-0.062-10.166c-0.636-4.475-2.223-10.996-5.734-14.735c3.414-1.466,6.895-2.778,10.439-3.908     C115.15,324.489,116.331,338.177,110.919,349.412z M120.087,349.744c-2.52-0.217-5.044-0.321-7.568-0.33     c5.195-11.498,3.974-25.317-3.366-35.544c3.396-1.052,6.84-1.957,10.32-2.7c4.436,4.556,6.787,10.743,6.769,17.206     c-0.012,4.191-0.93,8.317-2.267,12.271c-0.774,2.288-1.705,4.521-2.719,6.713C120.882,348.169,120.444,348.944,120.087,349.744z      M121.71,349.913c0.592-1.156,1.047-2.426,1.531-3.535c0.889-2.039,1.705-4.114,2.38-6.234c1.394-4.379,2.23-9.049,1.892-13.655     c-0.422-5.743-2.625-11.71-6.908-15.567c4.167-0.847,8.381-1.475,12.616-1.876c5.695,5.466,6.127,15.589,4.964,22.871     c-1.077,6.749-3.987,14.767-9.824,18.891C126.153,350.429,123.933,350.142,121.71,349.913z M129.777,351.064     c6.068-3.949,9.013-13.398,9.877-19.811c0.654-4.86,0.41-9.842-0.812-14.596c-0.714-2.777-1.814-5.738-3.826-7.787     c3.364-0.268,6.739-0.399,10.111-0.383c1.415,2.989,2.613,5.95,3.138,9.327c0.651,4.192,0.506,8.511-0.285,12.671     c-0.799,4.204-2.199,8.274-3.945,12.175c-0.859,1.919-1.804,3.801-2.801,5.652c-0.613,1.138-1.485,3.445-2.624,4.765     C135.691,352.283,132.742,351.613,129.777,351.064z M139.97,353.467c1.421-2.138,2.591-4.555,3.731-6.842     c2.293-4.601,4.225-9.423,5.32-14.458c1.607-7.386,1.611-16.815-2.426-23.667c3.988,0.068,7.971,0.332,11.926,0.801     c1.686,4.151,2.084,8.371,1.884,12.874c-0.212,4.759-0.627,9.595-1.801,14.222c-1.843,7.262-5.575,14.092-10.619,19.655     C145.348,355.094,142.67,354.237,139.97,353.467z M154.454,358.591c-1.818-0.774-3.662-1.495-5.519-2.185     c5.382-5.761,9.244-12.703,11.086-20.472c1.128-4.758,1.587-9.745,1.77-14.623c0.148-3.927-0.059-8.122-1.607-11.793     c3.871,0.515,7.715,1.213,11.508,2.117c-0.399,3.82-0.531,7.675-1.029,11.488c-0.671,5.132-1.699,10.236-3.338,15.152     c-1.377,4.128-3.207,8.098-5.555,11.765C159.671,353.317,157.146,355.934,154.454,358.591z M156.088,359.297     c5.674-4.855,9.545-12.325,11.971-19.109c1.733-4.845,2.819-9.899,3.526-14.989c0.022-0.161,0.044-0.324,0.066-0.485     c0.011,6.847,0.782,13.688,0.171,20.531c-0.589,6.6-2.63,13.105-5.931,18.87C162.712,362.389,159.437,360.777,156.088,359.297z      M200.365,442.691c-1.124-0.134-2.302-0.295-3.461-0.334c0.497-0.772,0.81-1.691,0.868-2.796     c0.012-0.228-0.004-0.446-0.014-0.667c2.046-0.133,4.089-0.283,5.75,1.234c0.945,0.863,1.932,2.267,2.577,3.715     C204.219,443.307,202.309,442.922,200.365,442.691z M207.332,439.442c-1.373-1.531-3.059-2.681-4.907-3.187     c1.076-1.42,1.621-3.335,1.469-5.235c4.804-0.326,9.221,1.501,10.889,6.226C212.217,437.692,209.719,438.37,207.332,439.442z      M237.565,426.4c1.201-0.157,2.404-0.273,3.624,0.317c2.547,1.231,3.707,3.763,4.475,6.353c-1.443,0.29-3.029,0.686-4.113,1.483     c-0.728-1.054-1.695-1.941-3.006-2.555c-0.432-0.202-0.963-0.358-1.544-0.474c0.341-0.639,0.59-1.345,0.71-2.122     C237.872,428.36,237.801,427.356,237.565,426.4z M235.608,434.953c2.729,0.5,3.702,2.768,4.113,5.188     c-1.708-0.311-3.438-0.532-5.154-0.734c-1.612-0.19-3.405-0.508-5.117-0.465c0.502-0.866,0.814-1.936,0.911-3.213     C232.075,435.552,233.89,434.639,235.608,434.953z M211.304,410.68c2.087,4.199,5.39,7.479,9.721,9.311     c2.19,0.927,4.534,1.379,6.748,2.23c2.398,0.921,8.087,3.829,6.862,7.134c-0.333,0.9-4.599,3.081-4.993,2.204     c-0.769-1.705-2.06-3.176-3.669-4.225c-4.114-2.683-9.789-1.396-12.478-6.118c-0.233-0.409-0.841-0.302-0.974,0.127     c-1.689,5.469,5.913,6.357,9.253,7.505c2.054,0.706,4.422,2.265,5.036,4.512c0.704,2.58-1.054,5.074-3.725,5.082     c-1.507,0.005-2.928-0.513-4.318-0.806c-2.21-6.428-9.097-11.442-15.65-9.38c-2.022-4.282-5.879-5.314-9.985-5.849     c1.674-7.366,2.61-14.816,2.607-22.382c-0.002-5.795,0.297-13.812-2.497-19.298c1.526-1.047,3.145-2.009,4.855-2.883     c0.802-0.41,1.599-0.814,2.395-1.217c4.358,1.964,9.253,3.127,14.094,3.997C208.811,389.265,206.533,401.079,211.304,410.68z      M214.854,373.186c-0.174,1.095-0.675,2.152-1.003,3.216c-3.113-0.654-6.227-1.328-9.348-1.824     c3.549-1.835,7.011-3.735,10.342-5.949C214.961,370.139,215.103,371.62,214.854,373.186z M221.907,377.899     c-2.225-0.334-4.448-0.751-6.671-1.21c0.437-1.072,0.614-2.33,0.744-3.351c0.214-1.687,0.238-3.604-0.273-5.291     c1.414-0.971,2.805-1.998,4.165-3.115c1.023-0.84,2.013-1.719,2.986-2.615c0.049,0.152,0.095,0.307,0.138,0.468     c0.531,1.996,0.785,4.056,0.767,6.12C223.735,372.085,222.93,374.984,221.907,377.899z M231.487,378.999     c-2.874-0.243-5.742-0.553-8.6-0.942c-0.037-0.005-0.074-0.013-0.111-0.018c1.468-2.785,2.107-6.012,2.19-9.133     c0.053-1.978,0.06-5.378-0.91-7.703c1.995-1.92,3.873-3.961,5.641-6.092c1.518,3.614,2.366,7.647,2.703,11.45     C232.78,370.852,232.174,374.852,231.487,378.999z M232.987,379.12c1.155-4.466,1.089-9.516,0.501-13.936     c-0.493-3.711-1.377-7.503-3.214-10.781c1.717-2.122,3.329-4.329,4.807-6.623c1.9-2.95,3.586-6.061,5.048-9.283     c2.896,6.589,4.484,13.629,4.574,20.849c0.047,3.748-0.282,7.508-0.995,11.188c-0.597,3.079-1.599,6.017-2.484,9.007     C238.475,379.464,235.728,379.327,232.987,379.12z M248.06,379.604c-1.993,0.023-3.986,0.001-5.979-0.045     c3.084-6.195,3.982-13.906,3.873-20.652c-0.124-7.659-1.859-15.226-5.069-22.176c2.157-5.111,3.753-10.475,4.658-15.944     c3.543,8.981,6.008,18.508,7.608,27.998c0.876,5.198,1.412,10.471,1.285,15.748c-0.07,2.875-0.335,5.748-0.86,8.576     c-0.403,2.171-1.153,4.269-1.656,6.407C250.634,379.558,249.347,379.589,248.06,379.604z M253.479,379.458     c1.659-3.978,2.047-8.95,2.259-13.064c0.276-5.379-0.168-10.776-1.002-16.091c-1.515-9.657-3.892-19.549-7.842-28.571     c3.956,2.857,8.923,4.359,13.779,5.454c3.112,8.737,4.927,17.619,4.789,26.941c-0.126,8.54-1.9,16.832-4.637,24.876     C258.379,379.198,255.93,379.361,253.479,379.458z M261.713,378.929c6.815-15.866,6.853-35.38,0.592-51.39     c1.157,0.243,2.305,0.476,3.419,0.697c1.594,0.317,3.367,0.706,5.231,1.076c3.119,7.632,5.623,15.144,6.166,23.542     c0.542,8.39-0.664,16.691-3.344,24.63C269.775,378.116,265.75,378.587,261.713,378.929z M275.387,377.22     c2.715-8.083,3.716-16.728,3.011-25.223c-0.626-7.555-2.425-15.658-6.148-22.435c3.055,0.574,6.3,1.041,9.396,1.03     c0.928,3.123,2.126,6.168,2.89,9.35c1.009,4.195,1.643,8.481,1.892,12.788c0.45,7.792-0.594,15.264-2.382,22.787     C281.175,376.153,278.289,376.73,275.387,377.22z M295.589,372.779c-3.276,0.343-6.536,1.603-9.716,2.344     c-0.061,0.014-0.123,0.026-0.185,0.04c2.034-7.368,2.561-15.33,2.03-22.884c-0.279-3.967-0.878-7.911-1.805-11.779     c-0.788-3.288-1.707-6.818-3.223-9.931c2.261-0.092,4.42-0.466,6.337-1.285c0.037,3.593,0.397,7.196,1,10.695     c1.564,9.075,5.351,17.831,5.716,27.095C295.818,368.985,295.741,370.885,295.589,372.779z M327.142,430.793     c4.173,0.647,8.332,1.178,11.925,3.6c1.646,1.109,4.579,3.566,4.305,5.969c-0.466,4.093-6.963,3.645-9.623,3.794     c-3.96,0.221-7.93,0.239-11.892,0.066c-4.283-0.187-9.975-0.041-13.965-1.744c-8.015-3.423-3.107-16.005-3.789-22.758     c-0.763-7.561-3.424-14.731-4.841-22.165c-1.688-8.859,0.369-17.029,0.873-25.852c0.431-7.548-1.441-14.756-3.582-21.928     c-5.107-17.112-7.338-35.657,5.581-50.013c0.477-0.53-0.233-1.208-0.771-0.771c-2.961,2.406-5.289,5.202-7.099,8.26     c0.888-2.98,2.124-5.805,3.728-8.49c0.298-0.498-0.461-0.933-0.774-0.452c-1.926,2.957-3.615,6.055-4.873,9.357     c-0.946,2.483-2.372,5.774-1.782,8.513c-0.828,3.102-1.299,6.33-1.468,9.6c-3.342-0.08-6.673,0.655-10.062,0.507     c-4.421-0.193-8.84-0.955-13.199-1.673c-6.961-1.146-13.049-3.179-19.371-5.967c3.016-6.092,3.49-14.542,2.727-20.775     c-0.099-0.81-1.317-0.866-1.308,0c0.045,3.966-0.546,7.822-1.465,11.651c-0.049-4.027-0.476-8.046-1.357-11.991     c-0.15-0.672-1.192-0.515-1.189,0.161c0.09,17.533-3.275,34.613-13.446,49.222c-4.646,6.674-10.522,12.631-17.13,17.371     c-6.701,4.807-14.44,7.354-21.362,11.7c-10.467,6.573-16.775,19.261-16.859,31.483c-0.036,5.219,0.716,12.771,5.294,16.124     c2.044,1.498,4.55,1.94,7.014,2.2c1.994,0.21,4.047,0.158,6.015,0.573c1.354,0.236,2.629,0.704,3.824,1.403     c2.676,4.324,2.466,6.768-0.614,7.343c-2.725-4.386-9.6-6.568-14.107-6.117c-2.08,0.208-2.174,3.374,0,3.317     c2.537-0.066,4.956,0.388,7.115,1.802c2.879,1.885,5.205,5.352,1.042,7.068c-3.83,1.579-10.067,0.655-14.081,0.579     c-4.681-0.089-9.361-0.403-14.011-0.953c-3.12,0.529-4.935-0.849-5.445-4.133c-0.118-1.311-0.228-2.622-0.329-3.935     c-0.159-1.967-0.307-3.935-0.46-5.902c-0.766-9.824-1.515-19.664-1.93-29.51c-0.19-4.517-0.517-9.357,1.654-13.506     c1.902-3.634,5.497-6.181,8.152-9.231c4.782-5.494,8.315-11.998,10.249-19.025c2.18-7.919,1.535-15.649,0.81-23.733     c-0.829-9.239-0.73-19.148,3.274-27.714c3.609-7.721,9.848-12.59,17.55-15.879c0.566-0.242,0.274-1.189-0.311-1.151     c-6.642,0.439-11.826,4.096-15.654,9.132c1.953-3.592,4.656-6.783,7.498-9.703c0.544-0.559-0.14-1.279-0.778-1.008     c-4.25,1.808-6.988,5.032-9.206,9.027c-1.955,3.52-4.559,8.497-3.807,12.596c0.042,0.228,0.217,0.383,0.424,0.455     c-0.059,0.173-0.105,0.346-0.162,0.52c-0.028-0.008-0.05-0.021-0.078-0.028c-29.497-7.345-61.31-3.28-87.876,11.586     c-25.364,14.193-45.642,38.24-47.226,68.171c-0.603,11.394-0.023,24.423,7.625,33.514c3.935,4.677,8.924,8.329,13.861,11.934     c5.662,4.133,11.338,8.276,17.413,11.774c43.351,24.958,99.712,13.753,144.941,35.119c0.921,0.435,1.978,0.89,2.918,0.498     c0.948-0.395,1.368-1.48,1.69-2.456c1.225-3.711,2.449-7.422,3.674-11.133c8.531,7.077,17.062,14.154,25.593,21.231     c-13.105,5.106-26.21,10.212-39.315,15.318c1.928-5.1,3.572-10.307,4.924-15.588c0.299-1.17,0.528-2.575-0.311-3.444     c-0.581-0.602-1.486-0.725-2.318-0.813c-42.513-4.47-86.142-5.63-126.848-20.013c-20.281-7.166-41.675-17.2-54.252-35.449     c-11.656-16.913-13.539-39.012-8.803-58.608c5.754-23.81,20.66-45.08,37.14-62.609c1.655-1.76,3.311-3.521,5.013-5.236     c34.633-34.898,83.932-44.51,131.452-41.368c0.747,2.846,1.776,5.599,3.426,8.148c3.901,6.027,10.987,9.743,18.05,7.278     c2.561-0.894,1.517-4.922-1.133-4.109c-13.85,4.247-16.423-15.001-18.227-23.996c-1.306-6.509-3.724-12.307-8.158-16.58     c-6.101-11.36-13.726-21.82-19.191-33.602c-6.026-12.992-9.65-26.924-9.113-41.316c1.099-29.501,16.98-55.528,33.462-79.008     c0.559-0.797,0.371-2.222-0.369-2.86c-11.584-9.992-26.335-14.417-40.668-18.92c-16.609-5.218-33.385-9.905-50.294-14.048     c-15.985-3.916-32.089-7.333-48.281-10.268c42.154,3.295,83.883,11.425,123.943,25.36c6.47,2.25,13.065,4.745,18.866,8.456     c9.254,5.919,8.645,14.512,4.46,23.542c-5.704,12.309-12.235,23.866-16.233,36.93c-7.618,24.894-7.823,52.298,4.345,75.809     c6.248,12.072,15.467,21.642,26.91,28.872c13.079,8.264,31.947,17.264,31.977,35.273c0.003,1.845,2.785,1.833,2.857,0     c0.103-2.609-0.169-5.1-0.725-7.483c4.367,0.854,8.941,0.063,12.937-2.008c2.804-1.453,7.167-4.579,8.279-8.103     c3.693,2.121,7.507,4.038,11.162,5.961c12.149,6.393,25.88,13.686,33.782,25.352c4.442,6.558,5.016,13.88,1.416,21.003     c-0.783,1.549-1.704,2.967-2.708,4.309c0.244,0.246,0.476,0.503,0.713,0.755c-2.777-1.914-5.627-3.744-8.205-5.933     c-0.387-0.328-1.111,0.113-0.761,0.587c3.467,4.693,8.119,8.014,12.177,12.134c4.53,4.598,7.155,10.516,8.372,16.799     c2.591,13.366-1.625,26.654-4.886,39.495c-2.836,11.166-5.018,22.655-2.672,34.127c1.052,5.146,3.099,10.152,6.275,14.356     c3.771,4.991,10.329,8.904,7.857,15.524c-4.283-3.649-10.588-5.354-15.813-4.026     C325.987,428.611,325.852,430.593,327.142,430.793z M191.938,399.048c-0.08,7.667-1.139,15.253-2.921,22.702     c-0.015,0.063-0.015,0.121-0.025,0.182c-1.067-0.133-2.117-0.292-3.118-0.531c-9.048-2.162-7.441-17.467-5.263-24.148     c2.01-6.166,5.582-11.004,10.301-14.804C190.569,387.845,191.994,393.729,191.938,399.048z M343.747,407.788     c-0.331,3.261-1.431,6.922-1.65,10.401c-2.839-3.461-6.008-6.914-7.545-10.938c-5.233-13.702-1.464-28.361,2.062-41.971     c1.679-0.309,3.354-0.878,4.997-1.546c0.202,3.93,1.294,7.973,1.757,11.772c0.672,5.513,1.027,11.062,1.086,16.615     C344.51,397.351,344.275,402.583,343.747,407.788z M347.399,441.711c0.235-1.842-0.191-3.853-1.317-5.74     c2.549,0.182,5.094,0.717,6.927,2.59c1.249,1.276,1.93,2.955,2.381,4.71C352.884,442.348,349.941,441.581,347.399,441.711z      M358.323,439.653c-0.888-1.957-2.138-3.706-4.023-4.968c-2.035-1.363-4.646-2.178-7.065-1.943     c0.388-1.379,0.491-2.683,0.386-3.935c2.2,0.531,4.762,0.469,6.791,1.561c3.37,1.814,5.625,4.754,6.788,8.251     C360.174,438.84,359.195,439.143,358.323,439.653z M369.988,372.503c-1.4,9.126-4.4,18.094-5.018,27.323     c-0.469,7.014,1.097,14.402,6.231,19.514c2.235,2.225,4.874,3.602,7.916,4.374c1.822,0.462,4.046,0.4,5.756,1.223     c3.5,1.685,3.541,4.215,3.77,7.154c-4.232-3.173-10-3.733-16.223-3.511c-0.594,0.021-0.928,0.902-0.324,1.196     c2.824,1.375,5.72,1.496,8.727,2.284c3.955,1.036,6.786,3.469,8.399,6.979c-7.705,1.446-15.765-0.131-23.464,0.522     c-1.214-5.098-4.274-9.638-8.958-12.154c-2.377-1.277-6.964-3.002-9.981-1.938c-0.422-1.075-0.989-2.115-1.64-3.136     c2.072-3.361,2.087-7.707,2.536-11.619c0.708-6.169,1.004-12.384,0.891-18.592c-0.099-5.411-0.559-10.8-1.298-16.16     c-0.593-4.3-1.064-9.323-2.896-13.454c1.152-0.535,2.279-1.08,3.364-1.58c4.924-2.271,9.653-4.917,14.202-7.867     c2.068-1.341,4.154-2.761,6.217-4.236c0.509-0.335,1.015-0.675,1.52-1.016C370.718,356.147,371.303,363.93,369.988,372.503z      M365.083,345.317c0.288-3.193-0.352-6.628-1.222-9.51c-1.353-4.48-3.704-8.561-6.51-12.283     c-2.711-3.598-5.826-6.865-8.971-10.083c-1.645-1.683-3.632-3.634-5.899-4.239c0.953-1.629,1.817-3.309,2.586-5.032     c1.188,0.077,2.381,0.141,3.558,0.375c1.929,0.384,3.818,0.955,5.649,1.672c4.071,1.594,7.854,3.912,11.348,6.52     c6.673,4.981,13.412,11.366,15.164,19.816C375.423,336.666,370.436,341.202,365.083,345.317z M381.714,331.753     c-1.61-8.457-8.256-14.833-14.86-19.908c-3.512-2.699-7.294-5.064-11.394-6.763c-2.727-1.13-6.322-2.406-9.668-2.622     c0.905-2.243,1.652-4.549,2.225-6.901c9.16-0.924,18.037,2.859,25.978,7.407c4.27,2.446,8.307,5.456,11.27,9.433     c2.693,3.615,3.808,7.283,4.402,11.47C387.142,326.594,384.473,329.211,381.714,331.753z M391.17,322.205     c-0.934-8.392-8.644-15.72-15.36-19.737c-8.331-4.983-17.896-9.107-27.564-7.885c0.3-1.349,0.551-2.711,0.736-4.083     c0.009-0.066,0.013-0.132,0.022-0.198c2.376-0.496,4.654-1.233,7.109-1.474c2.606-0.256,5.234-0.234,7.845-0.067     c5.391,0.345,10.779,1.204,16.101,2.108c5.068,0.861,10.162,1.982,14.88,4.072c3.973,1.76,7.011,4.293,10.209,6.983     C401.465,309.379,396.662,316.051,391.17,322.205z M405.679,300.8c-2.382-2.954-6.042-5.128-9.299-6.696     c-5.015-2.414-10.475-3.695-15.932-4.648c-5.447-0.951-10.967-1.859-16.49-2.211c-4.572-0.291-10.352-0.42-14.781,1.477     c0.235-2.461,0.277-4.907,0.13-7.329c10.238-3.153,21.087-4.509,31.783-3.864c0.268,2,0.423,4.055,0.449,6.168     c0.02,1.572,2.586,2.057,2.854,0.386c0.335-2.095,0.477-4.182,0.447-6.25c4.085,0.43,8.338,1.202,12.342,2.563     c-0.004,0.033-0.006,0.065-0.009,0.097c-0.129,1.119,1.594,1.604,2.158,0.707c4.172,1.696,7.969,4.112,10.859,7.576     C409.009,293.008,407.482,297,405.679,300.8z M411.354,284.071c-0.222,1.054-0.466,2.094-0.729,3.121     c-2.945-3.244-6.676-5.572-10.742-7.232c1.726-4.16,2.566-8.431,2.772-12.771c1.526,1.199,3.16,2.254,4.933,3.077     c1.267,0.588,3.164,1.634,4.777,1.633C412.449,275.937,412.213,279.991,411.354,284.071z M411,236.054     c-3.289-0.38-6.152-0.924-9.157-2.692c-2.501-1.472-4.843-3.359-6.996-5.359c-1.203-4.38-2.25-8.7-2.877-12.915     c2.526,2.964,5.363,5.622,8.576,7.898c3.163,2.241,8.307,6.052,12.587,5.458C412.118,230.945,411.418,233.548,411,236.054z      M413.762,227c-2.655,0.734-5.333-0.812-7.637-2.005c-1.974-1.021-3.874-2.184-5.681-3.476c-3.208-2.293-6.135-5.002-8.685-8.019     c-0.025-0.205-0.056-0.411-0.08-0.615c-0.35-3.103-0.507-6.229-0.482-9.353c3.261,2.157,6.6,4.234,9.699,6.636     c3.751,2.907,7.774,5.669,12.482,6.702c2.688,0.589,5.406,0.579,8.129,0.352C418.136,219.555,415.565,223.093,413.762,227z      M487.82,216.744c1.783-1.43,3.41-3.096,4.983-4.787c-0.374,1.886-1.271,3.892-1.957,5.271c-0.491,0.987-1.226,1.89-1.684,2.867     c-0.96-0.756-2.172-1.377-3.465-1.903C486.463,217.805,487.188,217.251,487.82,216.744z M483.396,210.54     c-0.19,2.189-0.477,4.355-1.068,6.474c-1.368-0.426-2.628-0.789-3.532-1.137c-0.236-0.091-0.457-0.193-0.686-0.29     C480.177,214.263,481.799,212.458,483.396,210.54z M473.196,200.496c-0.115-2.4,0.435-4.801,0.08-7.099     c1.639,0.15,3.277,0.323,4.919,0.535C476.822,196.368,475.183,198.53,473.196,200.496z M467.382,199.873     c-1.216,1.537-2.603,2.761-4.045,3.979c-0.65-0.588-1.318-1.169-2.02-1.736c-3.48-2.813-7.439-4.107-11.571-5.09     c-0.177-1.888-0.191-7.258-3.041-6.402c-1.132,0.34-2.013,1.958-2.737,2.807c-0.544,0.637-1.146,1.256-1.689,1.914     c-6.737-1.638-13.292-4-19.6-6.884c3.843-0.804,7.722-1.238,11.647-1.241c0.05,0.064,0.105,0.125,0.179,0.178     c0.509,0.362,0.717,2.209,0.914,2.822c0.31,0.965,0.627,1.928,0.958,2.886c0.241,0.693,1.066,1.178,1.761,0.733     c2.125-1.36,3.145-3.748,5.175-5.216c0.181-0.131,0.311-0.303,0.401-0.492c2.966,0.617,5.873,1.491,8.792,2.301     c0.154,2.564,0.529,6.422,2.813,7.043c2.218,0.602,4.303-2.656,5.53-4.921c0.943,2.778,0.586,7.712,3.495,8.216     c2.467,0.427,4.962-3.784,6.518-6.771c0.533,2.959-0.612,6.416,0.22,9.377c0.137,0.485,0.487,0.781,0.893,0.88     c-0.984,1.125-1.944,2.263-2.865,3.434c0.031-2.335,0.14-4.666,0.222-7C469.364,199.776,468.007,199.085,467.382,199.873z      M467.589,207.921c-0.787-0.767-1.576-1.542-2.382-2.319c0.733-0.622,1.423-1.307,2.069-2.027     C467.397,205.023,467.508,206.471,467.589,207.921z M447.562,196.53c-0.864-0.188-1.732-0.373-2.604-0.564     c0.568-0.715,1.107-1.45,1.652-2.091c0.101-0.118,0.201-0.236,0.302-0.355c0.022,0.049,0.036,0.095,0.071,0.152     c0.046,0.262,0.098,0.523,0.157,0.782C447.284,195.146,447.421,195.839,447.562,196.53z M436.546,187.266     c1.095,0.046,2.193,0.117,3.296,0.235c0.23,0.025,0.457,0.061,0.686,0.09c-0.922,0.949-1.598,2.15-2.489,3.151     c-0.324-0.839-0.657-1.675-1.024-2.493C436.868,187.919,436.72,187.58,436.546,187.266z M454.088,190.854     c1.506,0.398,3.018,0.761,4.549,1.043c-0.444,0.621-0.918,1.222-1.426,1.798c-0.663,1.485-1.191,1.639-1.584,0.461     C454.914,193.649,454.447,192.188,454.088,190.854z M463.246,192.512c1.729,0.177,3.446,0.327,5.158,0.468     c-0.465,0.768-0.949,1.525-1.467,2.264c-3.097,4.413-2.3,2.433-3.094-0.511C463.617,193.894,463.456,193.175,463.246,192.512z      M473.465,206.123c0.361,2.356,0.44,4.728,0.329,7.109c-1.486-1.014-2.837-2.148-4.14-3.344     C471.026,208.738,472.264,207.46,473.465,206.123z M481.837,202.309c-0.085-2.603,0.381-5.196,0.183-7.79     c0.835,0.149,1.672,0.305,2.512,0.488c0.932,0.204,1.889,0.427,2.86,0.655C485.744,198.073,483.909,200.274,481.837,202.309z      M490.399,205.21c0.27-2.927,0.956-5.77,0.675-8.69c2.326,0.525,4.702,1,7.06,1.285     C495.817,200.557,493.25,203.009,490.399,205.21z M502.113,194.399c-6.217,0.479-13.419-2.29-19.438-3.626     c-5.277-1.171-10.438-1.861-15.841-1.956c-6.717-0.118-12.925-1.207-19.453-2.691c-10.301-2.343-20.922-2.545-31.256-0.27     c-1.746,0.384-2.019,2.911-0.518,3.773c10.137,5.816,20.633,9.09,32.016,11.515c6.019,1.282,10.417,3.677,14.748,8.07     c3.545,3.596,6.896,7.067,11.542,9.22c1.761,0.817,3.603,1.44,5.431,2.087c1.103,0.39,2.221,0.747,3.315,1.162     c1.447,0.55,4.55,0.756,3.839,2.341c-0.778,1.735-5.516,2.062-6.983,2.082c-3.107,0.042-5.959-0.785-8.792-1.957     c-5.2-2.152-9.813-5.478-14.951-7.771c-4.776-2.132-9.841-3.525-15.022-4.219c-4.566-0.612-9.111-0.605-13.673,0.016     c-6.399,0.871-12.288,1.844-18.255-1.34c-4.465-2.382-8.098-6.054-12.197-8.976c-1.455-1.036-3.398-2.031-5.237-3.17     c1.19-16.859,7.921-33.195,20.449-44.695c2.246,0.319,4.414,0.741,6.146,0.927c12.457,1.34,24.147,3.898,35.048,9.861     c0.821,1.094,1.186,2.468,1.136,3.965c-0.066,1.977-1.204,3.856-0.974,5.816c0.069,0.589,0.717,0.936,1.194,0.499     c2.156-1.975,2.569-5.718,1.471-8.649c0.157,0.096,0.316,0.184,0.472,0.281c2.221,1.382,4.492,2.888,6.806,4.332     c0.355,1.164,0.418,2.42,0.139,3.692c-0.418,1.9-1.759,3.276-2.359,5.089c-0.158,0.477,0.331,0.868,0.771,0.774     c2.712-0.585,3.903-3.736,4.033-6.271c0.031-0.611-0.022-1.207-0.118-1.791c1.476,0.863,2.971,1.665,4.484,2.374     c0.284,0.818,0.463,1.676,0.502,2.581c0.065,1.515-0.479,3.027-0.068,4.51c0.098,0.355,0.554,0.588,0.885,0.368     c2.024-1.343,2.071-3.894,1.337-6.346c1.686,0.615,3.411,1.006,5.158,1.265c0.52,0.575,0.956,1.214,1.154,1.957     c0.391,1.463-0.751,2.723-1.193,4.054c-0.176,0.527,0.372,0.996,0.87,0.873c2.077-0.513,3.136-2.727,2.788-4.758     c-0.113-0.66-0.364-1.256-0.689-1.811c7.071,0.522,14.347-0.444,20.759,2.237c3.361,1.405,5.743,4.233,6.291,7.904     C508.565,192.303,506.726,194.043,502.113,194.399z" data-original="#000000" class="" data-old_color="#000000" fill="#7CFC00"/>
			<path d="M440.554,172.09c-5.547-1.45-7.859-7.181-13.864-7.904c-3.732-0.449-7.882,0.717-10.2,3.731     c-0.614,0.139-1.203-0.002-1.629-0.731c-0.947-1.618,1.033-3.471,2.202-4.321c2.046-1.488,4.449-2.142,6.872-2.692     c0.542-0.123,0.529-0.942,0.002-1.075c-4.467-1.127-11.958,1.665-12.24,7.016c-0.104,1.983,1.254,4.248,3.354,4.524     c0.621,0.081,1.173-0.018,1.667-0.231c0.215,0.032,0.445-0.001,0.668-0.139c0.319-0.197,0.63-0.355,0.945-0.53     c-0.702,1.853-0.958,3.777-0.102,5.776c0.898,2.094,3.238,5.046,5.625,5.255c0.42,0.037,0.787-0.464,0.653-0.854     c-0.575-1.673-2.432-2.631-3.486-4.026c-1.788-2.363-1.276-4.812-0.226-7.269c-0.128,3.226,2.083,6.319,5.436,7.295     c2.076,0.604,6.006,0.149,8.021-1.593c-0.903,2.203-2.463,4.031-4.8,5.011c-0.592,0.248-0.308,1.293,0.326,1.221     c2.155-0.242,3.582-0.951,4.897-2.749c0.813-1.111,1.336-2.408,1.406-3.743c1.451,0.713,3.018,0.852,4.68-0.33     C441.364,173.305,441.361,172.301,440.554,172.09z M432.519,171.33c-0.079,0.67-2.003,1.359-2.559,1.519     c-1.239,0.355-2.636,0.296-3.808-0.266c-1.764-0.846-2.875-2.708-3.405-4.622c1.361-0.294,2.688-0.307,3.999-0.03     c-0.61,0.997-0.667,2.458,0.094,3.314c0.434,0.488,1.168,0.51,1.714,0.238c0.383-0.191,0.669-0.542,0.91-0.888     c0.149-0.215,0.229-0.463,0.332-0.701c0.015-0.03,0.04-0.083,0.06-0.124c0.078-0.158,0.141-0.312,0.192-0.466     c0.787,0.502,1.572,1.13,2.357,1.894c0.039,0.037,0.078,0.075,0.117,0.112C432.523,171.317,432.52,171.323,432.519,171.33z" data-original="#000000" class="" data-old_color="#000000" fill="#FF0000"/>
			<path d="M435.957,162.342c-2.456-1.467-5.019-1.924-7.813-2.247c-0.415-0.048-0.504,0.645-0.096,0.73     c3.382,0.703,6.345,2.529,8.981,4.698c1.791,1.474,3.283,2.772,5.561,3.384c0.44,0.118,0.877-0.498,0.481-0.82     C440.726,166.178,438.569,163.902,435.957,162.342z" data-original="#000000" class="" data-old_color="#000000" fill="#7CFC00"/>
			<path d="M496.295,185.589c-0.203,0.227-0.359,0.5-0.436,0.797c-0.496,1.911,1.683,3.51,3.446,3.057     c1.926-0.495,2.207-3.104,0.85-4.341C498.937,183.993,497.079,184.309,496.295,185.589z" data-original="#000000" class="" data-old_color="#000000" fill="#7CFC00"/>
			<path d="M495.926,180.938c-0.945,0.052-1.113,1.331-0.216,1.634c1.317,0.445,2.749,0.512,3.977,1.229     c0.886,0.517,1.764,1.402,2.453,2.156c0.219,0.24,0.698,0.14,0.759-0.198C503.555,182.175,498.71,180.786,495.926,180.938z" data-original="#000000" class="" data-old_color="#000000" fill="#7CFC00"/>
		</g>
	</g>
</g></g> </svg>
